G04 #@! TF.GenerationSoftware,KiCad,Pcbnew,(5.0.2)-1*
G04 #@! TF.CreationDate,2019-04-15T21:18:57-07:00*
G04 #@! TF.ProjectId,D52M Feather Wing,4435324d-2046-4656-9174-686572205769,rev?*
G04 #@! TF.SameCoordinates,Original*
G04 #@! TF.FileFunction,Legend,Top*
G04 #@! TF.FilePolarity,Positive*
%FSLAX46Y46*%
G04 Gerber Fmt 4.6, Leading zero omitted, Abs format (unit mm)*
G04 Created by KiCad (PCBNEW (5.0.2)-1) date 2019-04-15 9:18:57 PM*
%MOMM*%
%LPD*%
G01*
G04 APERTURE LIST*
%ADD10C,0.120000*%
%ADD11C,0.150000*%
G04 APERTURE END LIST*
D10*
G04 #@! TO.C,U2*
X-5000000Y3060000D02*
X5000000Y3060000D01*
X-5000000Y17260000D02*
X-5000000Y3060000D01*
X5000000Y17260000D02*
X-5000000Y17260000D01*
X5000000Y3060000D02*
X5000000Y17260000D01*
D11*
X-761904Y18707619D02*
X-761904Y17898095D01*
X-714285Y17802857D01*
X-666666Y17755238D01*
X-571428Y17707619D01*
X-380952Y17707619D01*
X-285714Y17755238D01*
X-238095Y17802857D01*
X-190476Y17898095D01*
X-190476Y18707619D01*
X238095Y18612380D02*
X285714Y18660000D01*
X380952Y18707619D01*
X619047Y18707619D01*
X714285Y18660000D01*
X761904Y18612380D01*
X809523Y18517142D01*
X809523Y18421904D01*
X761904Y18279047D01*
X190476Y17707619D01*
X809523Y17707619D01*
X-3642857Y1707619D02*
X-3642857Y2707619D01*
X-3404761Y2707619D01*
X-3261904Y2660000D01*
X-3166666Y2564761D01*
X-3119047Y2469523D01*
X-3071428Y2279047D01*
X-3071428Y2136190D01*
X-3119047Y1945714D01*
X-3166666Y1850476D01*
X-3261904Y1755238D01*
X-3404761Y1707619D01*
X-3642857Y1707619D01*
X-2166666Y2707619D02*
X-2642857Y2707619D01*
X-2690476Y2231428D01*
X-2642857Y2279047D01*
X-2547619Y2326666D01*
X-2309523Y2326666D01*
X-2214285Y2279047D01*
X-2166666Y2231428D01*
X-2119047Y2136190D01*
X-2119047Y1898095D01*
X-2166666Y1802857D01*
X-2214285Y1755238D01*
X-2309523Y1707619D01*
X-2547619Y1707619D01*
X-2642857Y1755238D01*
X-2690476Y1802857D01*
X-1738095Y2612380D02*
X-1690476Y2660000D01*
X-1595238Y2707619D01*
X-1357142Y2707619D01*
X-1261904Y2660000D01*
X-1214285Y2612380D01*
X-1166666Y2517142D01*
X-1166666Y2421904D01*
X-1214285Y2279047D01*
X-1785714Y1707619D01*
X-1166666Y1707619D01*
X-738095Y1707619D02*
X-738095Y2707619D01*
X-404761Y1993333D01*
X-71428Y2707619D01*
X-71428Y1707619D01*
X309523Y1707619D02*
X833333Y2374285D01*
X309523Y2374285D02*
X833333Y1707619D01*
X1119047Y1707619D02*
X1642857Y2374285D01*
X1119047Y2374285D02*
X1642857Y1707619D01*
X2023809Y1707619D02*
X2023809Y2707619D01*
X2357142Y1993333D01*
X2690476Y2707619D01*
X2690476Y1707619D01*
X3309523Y2279047D02*
X3214285Y2326666D01*
X3166666Y2374285D01*
X3119047Y2469523D01*
X3119047Y2517142D01*
X3166666Y2612380D01*
X3214285Y2660000D01*
X3309523Y2707619D01*
X3500000Y2707619D01*
X3595238Y2660000D01*
X3642857Y2612380D01*
X3690476Y2517142D01*
X3690476Y2469523D01*
X3642857Y2374285D01*
X3595238Y2326666D01*
X3500000Y2279047D01*
X3309523Y2279047D01*
X3214285Y2231428D01*
X3166666Y2183809D01*
X3119047Y2088571D01*
X3119047Y1898095D01*
X3166666Y1802857D01*
X3214285Y1755238D01*
X3309523Y1707619D01*
X3500000Y1707619D01*
X3595238Y1755238D01*
X3642857Y1802857D01*
X3690476Y1898095D01*
X3690476Y2088571D01*
X3642857Y2183809D01*
X3595238Y2231428D01*
X3500000Y2279047D01*
G04 #@! TO.C,U1*
X6881904Y30551428D02*
X7024761Y30503809D01*
X7072380Y30456190D01*
X7120000Y30360952D01*
X7120000Y30218095D01*
X7072380Y30122857D01*
X7024761Y30075238D01*
X6929523Y30027619D01*
X6548571Y30027619D01*
X6548571Y31027619D01*
X6881904Y31027619D01*
X6977142Y30980000D01*
X7024761Y30932380D01*
X7072380Y30837142D01*
X7072380Y30741904D01*
X7024761Y30646666D01*
X6977142Y30599047D01*
X6881904Y30551428D01*
X6548571Y30551428D01*
X7500952Y30313333D02*
X7977142Y30313333D01*
X7405714Y30027619D02*
X7739047Y31027619D01*
X8072380Y30027619D01*
X8262857Y31027619D02*
X8834285Y31027619D01*
X8548571Y30027619D02*
X8548571Y31027619D01*
X6881904Y28011428D02*
X7215238Y28011428D01*
X7358095Y27487619D02*
X6881904Y27487619D01*
X6881904Y28487619D01*
X7358095Y28487619D01*
X7786666Y27487619D02*
X7786666Y28487619D01*
X8358095Y27487619D01*
X8358095Y28487619D01*
X6358095Y25947619D02*
X6358095Y25138095D01*
X6405714Y25042857D01*
X6453333Y24995238D01*
X6548571Y24947619D01*
X6739047Y24947619D01*
X6834285Y24995238D01*
X6881904Y25042857D01*
X6929523Y25138095D01*
X6929523Y25947619D01*
X7358095Y24995238D02*
X7500952Y24947619D01*
X7739047Y24947619D01*
X7834285Y24995238D01*
X7881904Y25042857D01*
X7929523Y25138095D01*
X7929523Y25233333D01*
X7881904Y25328571D01*
X7834285Y25376190D01*
X7739047Y25423809D01*
X7548571Y25471428D01*
X7453333Y25519047D01*
X7405714Y25566666D01*
X7358095Y25661904D01*
X7358095Y25757142D01*
X7405714Y25852380D01*
X7453333Y25900000D01*
X7548571Y25947619D01*
X7786666Y25947619D01*
X7929523Y25900000D01*
X8691428Y25471428D02*
X8834285Y25423809D01*
X8881904Y25376190D01*
X8929523Y25280952D01*
X8929523Y25138095D01*
X8881904Y25042857D01*
X8834285Y24995238D01*
X8739047Y24947619D01*
X8358095Y24947619D01*
X8358095Y25947619D01*
X8691428Y25947619D01*
X8786666Y25900000D01*
X8834285Y25852380D01*
X8881904Y25757142D01*
X8881904Y25661904D01*
X8834285Y25566666D01*
X8786666Y25519047D01*
X8691428Y25471428D01*
X8358095Y25471428D01*
X7429523Y22407619D02*
X6858095Y22407619D01*
X7143809Y22407619D02*
X7143809Y23407619D01*
X7048571Y23264761D01*
X6953333Y23169523D01*
X6858095Y23121904D01*
X7762857Y23407619D02*
X8381904Y23407619D01*
X8048571Y23026666D01*
X8191428Y23026666D01*
X8286666Y22979047D01*
X8334285Y22931428D01*
X8381904Y22836190D01*
X8381904Y22598095D01*
X8334285Y22502857D01*
X8286666Y22455238D01*
X8191428Y22407619D01*
X7905714Y22407619D01*
X7810476Y22455238D01*
X7762857Y22502857D01*
X7429523Y19867619D02*
X6858095Y19867619D01*
X7143809Y19867619D02*
X7143809Y20867619D01*
X7048571Y20724761D01*
X6953333Y20629523D01*
X6858095Y20581904D01*
X7810476Y20772380D02*
X7858095Y20820000D01*
X7953333Y20867619D01*
X8191428Y20867619D01*
X8286666Y20820000D01*
X8334285Y20772380D01*
X8381904Y20677142D01*
X8381904Y20581904D01*
X8334285Y20439047D01*
X7762857Y19867619D01*
X8381904Y19867619D01*
X6858095Y18232380D02*
X6905714Y18280000D01*
X7000952Y18327619D01*
X7239047Y18327619D01*
X7334285Y18280000D01*
X7381904Y18232380D01*
X7429523Y18137142D01*
X7429523Y18041904D01*
X7381904Y17899047D01*
X6810476Y17327619D01*
X7429523Y17327619D01*
X7762857Y18327619D02*
X8429523Y18327619D01*
X8000952Y17327619D01*
X6810476Y15787619D02*
X7429523Y15787619D01*
X7096190Y15406666D01*
X7239047Y15406666D01*
X7334285Y15359047D01*
X7381904Y15311428D01*
X7429523Y15216190D01*
X7429523Y14978095D01*
X7381904Y14882857D01*
X7334285Y14835238D01*
X7239047Y14787619D01*
X6953333Y14787619D01*
X6858095Y14835238D01*
X6810476Y14882857D01*
X7762857Y15787619D02*
X8381904Y15787619D01*
X8048571Y15406666D01*
X8191428Y15406666D01*
X8286666Y15359047D01*
X8334285Y15311428D01*
X8381904Y15216190D01*
X8381904Y14978095D01*
X8334285Y14882857D01*
X8286666Y14835238D01*
X8191428Y14787619D01*
X7905714Y14787619D01*
X7810476Y14835238D01*
X7762857Y14882857D01*
X7429523Y12247619D02*
X6858095Y12247619D01*
X7143809Y12247619D02*
X7143809Y13247619D01*
X7048571Y13104761D01*
X6953333Y13009523D01*
X6858095Y12961904D01*
X8334285Y13247619D02*
X7858095Y13247619D01*
X7810476Y12771428D01*
X7858095Y12819047D01*
X7953333Y12866666D01*
X8191428Y12866666D01*
X8286666Y12819047D01*
X8334285Y12771428D01*
X8381904Y12676190D01*
X8381904Y12438095D01*
X8334285Y12342857D01*
X8286666Y12295238D01*
X8191428Y12247619D01*
X7953333Y12247619D01*
X7858095Y12295238D01*
X7810476Y12342857D01*
X6810476Y10707619D02*
X7429523Y10707619D01*
X7096190Y10326666D01*
X7239047Y10326666D01*
X7334285Y10279047D01*
X7381904Y10231428D01*
X7429523Y10136190D01*
X7429523Y9898095D01*
X7381904Y9802857D01*
X7334285Y9755238D01*
X7239047Y9707619D01*
X6953333Y9707619D01*
X6858095Y9755238D01*
X6810476Y9802857D01*
X7810476Y10612380D02*
X7858095Y10660000D01*
X7953333Y10707619D01*
X8191428Y10707619D01*
X8286666Y10660000D01*
X8334285Y10612380D01*
X8381904Y10517142D01*
X8381904Y10421904D01*
X8334285Y10279047D01*
X7762857Y9707619D01*
X8381904Y9707619D01*
X7429523Y7167619D02*
X6858095Y7167619D01*
X7143809Y7167619D02*
X7143809Y8167619D01*
X7048571Y8024761D01*
X6953333Y7929523D01*
X6858095Y7881904D01*
X8286666Y7834285D02*
X8286666Y7167619D01*
X8048571Y8215238D02*
X7810476Y7500952D01*
X8429523Y7500952D01*
X6429523Y4675238D02*
X6572380Y4627619D01*
X6810476Y4627619D01*
X6905714Y4675238D01*
X6953333Y4722857D01*
X7000952Y4818095D01*
X7000952Y4913333D01*
X6953333Y5008571D01*
X6905714Y5056190D01*
X6810476Y5103809D01*
X6620000Y5151428D01*
X6524761Y5199047D01*
X6477142Y5246666D01*
X6429523Y5341904D01*
X6429523Y5437142D01*
X6477142Y5532380D01*
X6524761Y5580000D01*
X6620000Y5627619D01*
X6858095Y5627619D01*
X7000952Y5580000D01*
X8000952Y4722857D02*
X7953333Y4675238D01*
X7810476Y4627619D01*
X7715238Y4627619D01*
X7572380Y4675238D01*
X7477142Y4770476D01*
X7429523Y4865714D01*
X7381904Y5056190D01*
X7381904Y5199047D01*
X7429523Y5389523D01*
X7477142Y5484761D01*
X7572380Y5580000D01*
X7715238Y5627619D01*
X7810476Y5627619D01*
X7953333Y5580000D01*
X8000952Y5532380D01*
X8905714Y4627619D02*
X8429523Y4627619D01*
X8429523Y5627619D01*
X6405714Y2135238D02*
X6548571Y2087619D01*
X6786666Y2087619D01*
X6881904Y2135238D01*
X6929523Y2182857D01*
X6977142Y2278095D01*
X6977142Y2373333D01*
X6929523Y2468571D01*
X6881904Y2516190D01*
X6786666Y2563809D01*
X6596190Y2611428D01*
X6500952Y2659047D01*
X6453333Y2706666D01*
X6405714Y2801904D01*
X6405714Y2897142D01*
X6453333Y2992380D01*
X6500952Y3040000D01*
X6596190Y3087619D01*
X6834285Y3087619D01*
X6977142Y3040000D01*
X7405714Y2087619D02*
X7405714Y3087619D01*
X7643809Y3087619D01*
X7786666Y3040000D01*
X7881904Y2944761D01*
X7929523Y2849523D01*
X7977142Y2659047D01*
X7977142Y2516190D01*
X7929523Y2325714D01*
X7881904Y2230476D01*
X7786666Y2135238D01*
X7643809Y2087619D01*
X7405714Y2087619D01*
X8358095Y2373333D02*
X8834285Y2373333D01*
X8262857Y2087619D02*
X8596190Y3087619D01*
X8929523Y2087619D01*
X-8381904Y2992380D02*
X-8334285Y3040000D01*
X-8239047Y3087619D01*
X-8000952Y3087619D01*
X-7905714Y3040000D01*
X-7858095Y2992380D01*
X-7810476Y2897142D01*
X-7810476Y2801904D01*
X-7858095Y2659047D01*
X-8429523Y2087619D01*
X-7810476Y2087619D01*
X-6858095Y2087619D02*
X-7429523Y2087619D01*
X-7143809Y2087619D02*
X-7143809Y3087619D01*
X-7239047Y2944761D01*
X-7334285Y2849523D01*
X-7429523Y2801904D01*
X-8381904Y5627619D02*
X-7810476Y5627619D01*
X-8096190Y4627619D02*
X-8096190Y5627619D01*
X-7572380Y5627619D02*
X-6905714Y4627619D01*
X-6905714Y5627619D02*
X-7572380Y4627619D01*
X-7786666Y7167619D02*
X-8120000Y7643809D01*
X-8358095Y7167619D02*
X-8358095Y8167619D01*
X-7977142Y8167619D01*
X-7881904Y8120000D01*
X-7834285Y8072380D01*
X-7786666Y7977142D01*
X-7786666Y7834285D01*
X-7834285Y7739047D01*
X-7881904Y7691428D01*
X-7977142Y7643809D01*
X-8358095Y7643809D01*
X-7453333Y8167619D02*
X-6786666Y7167619D01*
X-6786666Y8167619D02*
X-7453333Y7167619D01*
X-8191428Y9707619D02*
X-8191428Y10707619D01*
X-7858095Y9993333D01*
X-7524761Y10707619D01*
X-7524761Y9707619D01*
X-7048571Y9707619D02*
X-7048571Y10707619D01*
X-8477142Y12247619D02*
X-8477142Y13247619D01*
X-8143809Y12533333D01*
X-7810476Y13247619D01*
X-7810476Y12247619D01*
X-7143809Y13247619D02*
X-6953333Y13247619D01*
X-6858095Y13200000D01*
X-6762857Y13104761D01*
X-6715238Y12914285D01*
X-6715238Y12580952D01*
X-6762857Y12390476D01*
X-6858095Y12295238D01*
X-6953333Y12247619D01*
X-7143809Y12247619D01*
X-7239047Y12295238D01*
X-7334285Y12390476D01*
X-7381904Y12580952D01*
X-7381904Y12914285D01*
X-7334285Y13104761D01*
X-7239047Y13200000D01*
X-7143809Y13247619D01*
X-8905714Y14835238D02*
X-8762857Y14787619D01*
X-8524761Y14787619D01*
X-8429523Y14835238D01*
X-8381904Y14882857D01*
X-8334285Y14978095D01*
X-8334285Y15073333D01*
X-8381904Y15168571D01*
X-8429523Y15216190D01*
X-8524761Y15263809D01*
X-8715238Y15311428D01*
X-8810476Y15359047D01*
X-8858095Y15406666D01*
X-8905714Y15501904D01*
X-8905714Y15597142D01*
X-8858095Y15692380D01*
X-8810476Y15740000D01*
X-8715238Y15787619D01*
X-8477142Y15787619D01*
X-8334285Y15740000D01*
X-7334285Y14882857D02*
X-7381904Y14835238D01*
X-7524761Y14787619D01*
X-7620000Y14787619D01*
X-7762857Y14835238D01*
X-7858095Y14930476D01*
X-7905714Y15025714D01*
X-7953333Y15216190D01*
X-7953333Y15359047D01*
X-7905714Y15549523D01*
X-7858095Y15644761D01*
X-7762857Y15740000D01*
X-7620000Y15787619D01*
X-7524761Y15787619D01*
X-7381904Y15740000D01*
X-7334285Y15692380D01*
X-6905714Y14787619D02*
X-6905714Y15787619D01*
X-6334285Y14787619D02*
X-6762857Y15359047D01*
X-6334285Y15787619D02*
X-6905714Y15216190D01*
X-8334285Y17613333D02*
X-7858095Y17613333D01*
X-8429523Y17327619D02*
X-8096190Y18327619D01*
X-7762857Y17327619D01*
X-6953333Y18327619D02*
X-7429523Y18327619D01*
X-7477142Y17851428D01*
X-7429523Y17899047D01*
X-7334285Y17946666D01*
X-7096190Y17946666D01*
X-7000952Y17899047D01*
X-6953333Y17851428D01*
X-6905714Y17756190D01*
X-6905714Y17518095D01*
X-6953333Y17422857D01*
X-7000952Y17375238D01*
X-7096190Y17327619D01*
X-7334285Y17327619D01*
X-7429523Y17375238D01*
X-7477142Y17422857D01*
X-8334285Y20153333D02*
X-7858095Y20153333D01*
X-8429523Y19867619D02*
X-8096190Y20867619D01*
X-7762857Y19867619D01*
X-7000952Y20534285D02*
X-7000952Y19867619D01*
X-7239047Y20915238D02*
X-7477142Y20200952D01*
X-6858095Y20200952D01*
X-8334285Y22693333D02*
X-7858095Y22693333D01*
X-8429523Y22407619D02*
X-8096190Y23407619D01*
X-7762857Y22407619D01*
X-7524761Y23407619D02*
X-6905714Y23407619D01*
X-7239047Y23026666D01*
X-7096190Y23026666D01*
X-7000952Y22979047D01*
X-6953333Y22931428D01*
X-6905714Y22836190D01*
X-6905714Y22598095D01*
X-6953333Y22502857D01*
X-7000952Y22455238D01*
X-7096190Y22407619D01*
X-7381904Y22407619D01*
X-7477142Y22455238D01*
X-7524761Y22502857D01*
X-8334285Y25233333D02*
X-7858095Y25233333D01*
X-8429523Y24947619D02*
X-8096190Y25947619D01*
X-7762857Y24947619D01*
X-7477142Y25852380D02*
X-7429523Y25900000D01*
X-7334285Y25947619D01*
X-7096190Y25947619D01*
X-7000952Y25900000D01*
X-6953333Y25852380D01*
X-6905714Y25757142D01*
X-6905714Y25661904D01*
X-6953333Y25519047D01*
X-7524761Y24947619D01*
X-6905714Y24947619D01*
X-8334285Y27773333D02*
X-7858095Y27773333D01*
X-8429523Y27487619D02*
X-8096190Y28487619D01*
X-7762857Y27487619D01*
X-6905714Y27487619D02*
X-7477142Y27487619D01*
X-7191428Y27487619D02*
X-7191428Y28487619D01*
X-7286666Y28344761D01*
X-7381904Y28249523D01*
X-7477142Y28201904D01*
X-8334285Y30313333D02*
X-7858095Y30313333D01*
X-8429523Y30027619D02*
X-8096190Y31027619D01*
X-7762857Y30027619D01*
X-7239047Y31027619D02*
X-7143809Y31027619D01*
X-7048571Y30980000D01*
X-7000952Y30932380D01*
X-6953333Y30837142D01*
X-6905714Y30646666D01*
X-6905714Y30408571D01*
X-6953333Y30218095D01*
X-7000952Y30122857D01*
X-7048571Y30075238D01*
X-7143809Y30027619D01*
X-7239047Y30027619D01*
X-7334285Y30075238D01*
X-7381904Y30122857D01*
X-7429523Y30218095D01*
X-7477142Y30408571D01*
X-7477142Y30646666D01*
X-7429523Y30837142D01*
X-7381904Y30932380D01*
X-7334285Y30980000D01*
X-7239047Y31027619D01*
X-8381904Y33520000D02*
X-8477142Y33567619D01*
X-8620000Y33567619D01*
X-8762857Y33520000D01*
X-8858095Y33424761D01*
X-8905714Y33329523D01*
X-8953333Y33139047D01*
X-8953333Y32996190D01*
X-8905714Y32805714D01*
X-8858095Y32710476D01*
X-8762857Y32615238D01*
X-8620000Y32567619D01*
X-8524761Y32567619D01*
X-8381904Y32615238D01*
X-8334285Y32662857D01*
X-8334285Y32996190D01*
X-8524761Y32996190D01*
X-7905714Y32567619D02*
X-7905714Y33567619D01*
X-7334285Y32567619D01*
X-7334285Y33567619D01*
X-6858095Y32567619D02*
X-6858095Y33567619D01*
X-6620000Y33567619D01*
X-6477142Y33520000D01*
X-6381904Y33424761D01*
X-6334285Y33329523D01*
X-6286666Y33139047D01*
X-6286666Y32996190D01*
X-6334285Y32805714D01*
X-6381904Y32710476D01*
X-6477142Y32615238D01*
X-6620000Y32567619D01*
X-6858095Y32567619D01*
X-8405714Y35107619D02*
X-8405714Y36107619D01*
X-7834285Y35107619D01*
X-7834285Y36107619D01*
X-6786666Y35202857D02*
X-6834285Y35155238D01*
X-6977142Y35107619D01*
X-7072380Y35107619D01*
X-7215238Y35155238D01*
X-7310476Y35250476D01*
X-7358095Y35345714D01*
X-7405714Y35536190D01*
X-7405714Y35679047D01*
X-7358095Y35869523D01*
X-7310476Y35964761D01*
X-7215238Y36060000D01*
X-7072380Y36107619D01*
X-6977142Y36107619D01*
X-6834285Y36060000D01*
X-6786666Y36012380D01*
X-8381904Y38647619D02*
X-7762857Y38647619D01*
X-8096190Y38266666D01*
X-7953333Y38266666D01*
X-7858095Y38219047D01*
X-7810476Y38171428D01*
X-7762857Y38076190D01*
X-7762857Y37838095D01*
X-7810476Y37742857D01*
X-7858095Y37695238D01*
X-7953333Y37647619D01*
X-8239047Y37647619D01*
X-8334285Y37695238D01*
X-8381904Y37742857D01*
X-7477142Y38647619D02*
X-7143809Y37647619D01*
X-6810476Y38647619D01*
X-8167619Y40187619D02*
X-8500952Y40663809D01*
X-8739047Y40187619D02*
X-8739047Y41187619D01*
X-8358095Y41187619D01*
X-8262857Y41140000D01*
X-8215238Y41092380D01*
X-8167619Y40997142D01*
X-8167619Y40854285D01*
X-8215238Y40759047D01*
X-8262857Y40711428D01*
X-8358095Y40663809D01*
X-8739047Y40663809D01*
X-7786666Y40235238D02*
X-7643809Y40187619D01*
X-7405714Y40187619D01*
X-7310476Y40235238D01*
X-7262857Y40282857D01*
X-7215238Y40378095D01*
X-7215238Y40473333D01*
X-7262857Y40568571D01*
X-7310476Y40616190D01*
X-7405714Y40663809D01*
X-7596190Y40711428D01*
X-7691428Y40759047D01*
X-7739047Y40806666D01*
X-7786666Y40901904D01*
X-7786666Y40997142D01*
X-7739047Y41092380D01*
X-7691428Y41140000D01*
X-7596190Y41187619D01*
X-7358095Y41187619D01*
X-7215238Y41140000D01*
X-6929523Y41187619D02*
X-6358095Y41187619D01*
X-6643809Y40187619D02*
X-6643809Y41187619D01*
G04 #@! TD*
M02*
