G04 #@! TF.GenerationSoftware,KiCad,Pcbnew,(5.0.2)-1*
G04 #@! TF.CreationDate,2019-06-26T21:02:56-07:00*
G04 #@! TF.ProjectId,D52M Feather Wing,4435324d-2046-4656-9174-686572205769,rev?*
G04 #@! TF.SameCoordinates,Original*
G04 #@! TF.FileFunction,Soldermask,Top*
G04 #@! TF.FilePolarity,Negative*
%FSLAX46Y46*%
G04 Gerber Fmt 4.6, Leading zero omitted, Abs format (unit mm)*
G04 Created by KiCad (PCBNEW (5.0.2)-1) date 2019-06-26 9:02:56 PM*
%MOMM*%
%LPD*%
G01*
G04 APERTURE LIST*
%ADD10C,0.100000*%
G04 APERTURE END LIST*
D10*
G36*
X10333195Y3282478D02*
X10382267Y3272717D01*
X10520942Y3215276D01*
X10645750Y3131882D01*
X10751882Y3025750D01*
X10835276Y2900942D01*
X10892717Y2762266D01*
X10922000Y2615052D01*
X10922000Y2464948D01*
X10892717Y2317734D01*
X10835276Y2179058D01*
X10751882Y2054250D01*
X10645750Y1948118D01*
X10645747Y1948116D01*
X10520942Y1864724D01*
X10382267Y1807283D01*
X10333195Y1797522D01*
X10235052Y1778000D01*
X10084948Y1778000D01*
X9986805Y1797522D01*
X9937733Y1807283D01*
X9799058Y1864724D01*
X9674253Y1948116D01*
X9674250Y1948118D01*
X9568118Y2054250D01*
X9484724Y2179058D01*
X9427283Y2317734D01*
X9398000Y2464948D01*
X9398000Y2615052D01*
X9427283Y2762266D01*
X9484724Y2900942D01*
X9568118Y3025750D01*
X9674250Y3131882D01*
X9799058Y3215276D01*
X9937733Y3272717D01*
X9986805Y3282478D01*
X10084948Y3302000D01*
X10235052Y3302000D01*
X10333195Y3282478D01*
X10333195Y3282478D01*
G37*
G36*
X-9986805Y3282478D02*
X-9937733Y3272717D01*
X-9799058Y3215276D01*
X-9674250Y3131882D01*
X-9568118Y3025750D01*
X-9484724Y2900942D01*
X-9427283Y2762266D01*
X-9398000Y2615052D01*
X-9398000Y2464948D01*
X-9427283Y2317734D01*
X-9484724Y2179058D01*
X-9568118Y2054250D01*
X-9674250Y1948118D01*
X-9674253Y1948116D01*
X-9799058Y1864724D01*
X-9937733Y1807283D01*
X-9986805Y1797522D01*
X-10084948Y1778000D01*
X-10235052Y1778000D01*
X-10333195Y1797522D01*
X-10382267Y1807283D01*
X-10520942Y1864724D01*
X-10645747Y1948116D01*
X-10645750Y1948118D01*
X-10751882Y2054250D01*
X-10835276Y2179058D01*
X-10892717Y2317734D01*
X-10922000Y2464948D01*
X-10922000Y2615052D01*
X-10892717Y2762266D01*
X-10835276Y2900942D01*
X-10751882Y3025750D01*
X-10645750Y3131882D01*
X-10520942Y3215276D01*
X-10382267Y3272717D01*
X-10333195Y3282478D01*
X-10235052Y3302000D01*
X-10084948Y3302000D01*
X-9986805Y3282478D01*
X-9986805Y3282478D01*
G37*
G36*
X-9986805Y5822478D02*
X-9937733Y5812717D01*
X-9799058Y5755276D01*
X-9674250Y5671882D01*
X-9568118Y5565750D01*
X-9484724Y5440942D01*
X-9427283Y5302266D01*
X-9398000Y5155052D01*
X-9398000Y5004948D01*
X-9427283Y4857734D01*
X-9484724Y4719058D01*
X-9568118Y4594250D01*
X-9674250Y4488118D01*
X-9674253Y4488116D01*
X-9799058Y4404724D01*
X-9937733Y4347283D01*
X-9986805Y4337522D01*
X-10084948Y4318000D01*
X-10235052Y4318000D01*
X-10333195Y4337522D01*
X-10382267Y4347283D01*
X-10520942Y4404724D01*
X-10645747Y4488116D01*
X-10645750Y4488118D01*
X-10751882Y4594250D01*
X-10835276Y4719058D01*
X-10892717Y4857734D01*
X-10922000Y5004948D01*
X-10922000Y5155052D01*
X-10892717Y5302266D01*
X-10835276Y5440942D01*
X-10751882Y5565750D01*
X-10645750Y5671882D01*
X-10520942Y5755276D01*
X-10382267Y5812717D01*
X-10333195Y5822478D01*
X-10235052Y5842000D01*
X-10084948Y5842000D01*
X-9986805Y5822478D01*
X-9986805Y5822478D01*
G37*
G36*
X10333195Y5822478D02*
X10382267Y5812717D01*
X10520942Y5755276D01*
X10645750Y5671882D01*
X10751882Y5565750D01*
X10835276Y5440942D01*
X10892717Y5302266D01*
X10922000Y5155052D01*
X10922000Y5004948D01*
X10892717Y4857734D01*
X10835276Y4719058D01*
X10751882Y4594250D01*
X10645750Y4488118D01*
X10645747Y4488116D01*
X10520942Y4404724D01*
X10382267Y4347283D01*
X10333195Y4337522D01*
X10235052Y4318000D01*
X10084948Y4318000D01*
X9986805Y4337522D01*
X9937733Y4347283D01*
X9799058Y4404724D01*
X9674253Y4488116D01*
X9674250Y4488118D01*
X9568118Y4594250D01*
X9484724Y4719058D01*
X9427283Y4857734D01*
X9398000Y5004948D01*
X9398000Y5155052D01*
X9427283Y5302266D01*
X9484724Y5440942D01*
X9568118Y5565750D01*
X9674250Y5671882D01*
X9799058Y5755276D01*
X9937733Y5812717D01*
X9986805Y5822478D01*
X10084948Y5842000D01*
X10235052Y5842000D01*
X10333195Y5822478D01*
X10333195Y5822478D01*
G37*
G36*
X10333195Y8362478D02*
X10382267Y8352717D01*
X10512275Y8298866D01*
X10520942Y8295276D01*
X10645750Y8211882D01*
X10751882Y8105750D01*
X10835276Y7980942D01*
X10892717Y7842266D01*
X10922000Y7695052D01*
X10922000Y7544948D01*
X10892717Y7397734D01*
X10835276Y7259058D01*
X10751882Y7134250D01*
X10645750Y7028118D01*
X10645747Y7028116D01*
X10520942Y6944724D01*
X10382267Y6887283D01*
X10333195Y6877522D01*
X10235052Y6858000D01*
X10084948Y6858000D01*
X9986805Y6877522D01*
X9937733Y6887283D01*
X9799058Y6944724D01*
X9674253Y7028116D01*
X9674250Y7028118D01*
X9568118Y7134250D01*
X9484724Y7259058D01*
X9427283Y7397734D01*
X9398000Y7544948D01*
X9398000Y7695052D01*
X9427283Y7842266D01*
X9484724Y7980942D01*
X9568118Y8105750D01*
X9674250Y8211882D01*
X9799058Y8295276D01*
X9807725Y8298866D01*
X9937733Y8352717D01*
X9986805Y8362478D01*
X10084948Y8382000D01*
X10235052Y8382000D01*
X10333195Y8362478D01*
X10333195Y8362478D01*
G37*
G36*
X-9986805Y8362478D02*
X-9937733Y8352717D01*
X-9807725Y8298866D01*
X-9799058Y8295276D01*
X-9674250Y8211882D01*
X-9568118Y8105750D01*
X-9484724Y7980942D01*
X-9427283Y7842266D01*
X-9398000Y7695052D01*
X-9398000Y7544948D01*
X-9427283Y7397734D01*
X-9484724Y7259058D01*
X-9568118Y7134250D01*
X-9674250Y7028118D01*
X-9674253Y7028116D01*
X-9799058Y6944724D01*
X-9937733Y6887283D01*
X-9986805Y6877522D01*
X-10084948Y6858000D01*
X-10235052Y6858000D01*
X-10333195Y6877522D01*
X-10382267Y6887283D01*
X-10520942Y6944724D01*
X-10645747Y7028116D01*
X-10645750Y7028118D01*
X-10751882Y7134250D01*
X-10835276Y7259058D01*
X-10892717Y7397734D01*
X-10922000Y7544948D01*
X-10922000Y7695052D01*
X-10892717Y7842266D01*
X-10835276Y7980942D01*
X-10751882Y8105750D01*
X-10645750Y8211882D01*
X-10520942Y8295276D01*
X-10512275Y8298866D01*
X-10382267Y8352717D01*
X-10333195Y8362478D01*
X-10235052Y8382000D01*
X-10084948Y8382000D01*
X-9986805Y8362478D01*
X-9986805Y8362478D01*
G37*
G36*
X-3638866Y8776360D02*
X-3569528Y8747639D01*
X-3507126Y8705943D01*
X-3454057Y8652874D01*
X-3412361Y8590472D01*
X-3383640Y8521134D01*
X-3368999Y8447525D01*
X-3368999Y8372475D01*
X-3383640Y8298866D01*
X-3412361Y8229528D01*
X-3454057Y8167126D01*
X-3507126Y8114057D01*
X-3569528Y8072361D01*
X-3638866Y8043640D01*
X-3712475Y8028999D01*
X-3787525Y8028999D01*
X-3861134Y8043640D01*
X-3930472Y8072361D01*
X-3992874Y8114057D01*
X-4045943Y8167126D01*
X-4087639Y8229528D01*
X-4116360Y8298866D01*
X-4131001Y8372475D01*
X-4131001Y8447525D01*
X-4116360Y8521134D01*
X-4087639Y8590472D01*
X-4045943Y8652874D01*
X-3992874Y8705943D01*
X-3930472Y8747639D01*
X-3861134Y8776360D01*
X-3787525Y8791001D01*
X-3712475Y8791001D01*
X-3638866Y8776360D01*
X-3638866Y8776360D01*
G37*
G36*
X2361134Y8776360D02*
X2430472Y8747639D01*
X2492874Y8705943D01*
X2545943Y8652874D01*
X2587639Y8590472D01*
X2616360Y8521134D01*
X2631001Y8447525D01*
X2631001Y8372475D01*
X2616360Y8298866D01*
X2587639Y8229528D01*
X2545943Y8167126D01*
X2492874Y8114057D01*
X2430472Y8072361D01*
X2361134Y8043640D01*
X2287525Y8028999D01*
X2212475Y8028999D01*
X2138866Y8043640D01*
X2069528Y8072361D01*
X2007126Y8114057D01*
X1954057Y8167126D01*
X1912361Y8229528D01*
X1883640Y8298866D01*
X1868999Y8372475D01*
X1868999Y8447525D01*
X1883640Y8521134D01*
X1912361Y8590472D01*
X1954057Y8652874D01*
X2007126Y8705943D01*
X2069528Y8747639D01*
X2138866Y8776360D01*
X2212475Y8791001D01*
X2287525Y8791001D01*
X2361134Y8776360D01*
X2361134Y8776360D01*
G37*
G36*
X861134Y8776360D02*
X930472Y8747639D01*
X992874Y8705943D01*
X1045943Y8652874D01*
X1087639Y8590472D01*
X1116360Y8521134D01*
X1131001Y8447525D01*
X1131001Y8372475D01*
X1116360Y8298866D01*
X1087639Y8229528D01*
X1045943Y8167126D01*
X992874Y8114057D01*
X930472Y8072361D01*
X861134Y8043640D01*
X787525Y8028999D01*
X712475Y8028999D01*
X638866Y8043640D01*
X569528Y8072361D01*
X507126Y8114057D01*
X454057Y8167126D01*
X412361Y8229528D01*
X383640Y8298866D01*
X368999Y8372475D01*
X368999Y8447525D01*
X383640Y8521134D01*
X412361Y8590472D01*
X454057Y8652874D01*
X507126Y8705943D01*
X569528Y8747639D01*
X638866Y8776360D01*
X712475Y8791001D01*
X787525Y8791001D01*
X861134Y8776360D01*
X861134Y8776360D01*
G37*
G36*
X-638866Y8776360D02*
X-569528Y8747639D01*
X-507126Y8705943D01*
X-454057Y8652874D01*
X-412361Y8590472D01*
X-383640Y8521134D01*
X-368999Y8447525D01*
X-368999Y8372475D01*
X-383640Y8298866D01*
X-412361Y8229528D01*
X-454057Y8167126D01*
X-507126Y8114057D01*
X-569528Y8072361D01*
X-638866Y8043640D01*
X-712475Y8028999D01*
X-787525Y8028999D01*
X-861134Y8043640D01*
X-930472Y8072361D01*
X-992874Y8114057D01*
X-1045943Y8167126D01*
X-1087639Y8229528D01*
X-1116360Y8298866D01*
X-1131001Y8372475D01*
X-1131001Y8447525D01*
X-1116360Y8521134D01*
X-1087639Y8590472D01*
X-1045943Y8652874D01*
X-992874Y8705943D01*
X-930472Y8747639D01*
X-861134Y8776360D01*
X-787525Y8791001D01*
X-712475Y8791001D01*
X-638866Y8776360D01*
X-638866Y8776360D01*
G37*
G36*
X-2138866Y8776360D02*
X-2069528Y8747639D01*
X-2007126Y8705943D01*
X-1954057Y8652874D01*
X-1912361Y8590472D01*
X-1883640Y8521134D01*
X-1868999Y8447525D01*
X-1868999Y8372475D01*
X-1883640Y8298866D01*
X-1912361Y8229528D01*
X-1954057Y8167126D01*
X-2007126Y8114057D01*
X-2069528Y8072361D01*
X-2138866Y8043640D01*
X-2212475Y8028999D01*
X-2287525Y8028999D01*
X-2361134Y8043640D01*
X-2430472Y8072361D01*
X-2492874Y8114057D01*
X-2545943Y8167126D01*
X-2587639Y8229528D01*
X-2616360Y8298866D01*
X-2631001Y8372475D01*
X-2631001Y8447525D01*
X-2616360Y8521134D01*
X-2587639Y8590472D01*
X-2545943Y8652874D01*
X-2492874Y8705943D01*
X-2430472Y8747639D01*
X-2361134Y8776360D01*
X-2287525Y8791001D01*
X-2212475Y8791001D01*
X-2138866Y8776360D01*
X-2138866Y8776360D01*
G37*
G36*
X-9986805Y10902478D02*
X-9937733Y10892717D01*
X-9799058Y10835276D01*
X-9674250Y10751882D01*
X-9568118Y10645750D01*
X-9484724Y10520942D01*
X-9427283Y10382266D01*
X-9398000Y10235052D01*
X-9398000Y10084948D01*
X-9427283Y9937734D01*
X-9484724Y9799058D01*
X-9568118Y9674250D01*
X-9674250Y9568118D01*
X-9674253Y9568116D01*
X-9799058Y9484724D01*
X-9937733Y9427283D01*
X-9986805Y9417522D01*
X-10084948Y9398000D01*
X-10235052Y9398000D01*
X-10333195Y9417522D01*
X-10382267Y9427283D01*
X-10520942Y9484724D01*
X-10645747Y9568116D01*
X-10645750Y9568118D01*
X-10751882Y9674250D01*
X-10835276Y9799058D01*
X-10892717Y9937734D01*
X-10922000Y10084948D01*
X-10922000Y10235052D01*
X-10892717Y10382266D01*
X-10835276Y10520942D01*
X-10751882Y10645750D01*
X-10645750Y10751882D01*
X-10520942Y10835276D01*
X-10382267Y10892717D01*
X-10333195Y10902478D01*
X-10235052Y10922000D01*
X-10084948Y10922000D01*
X-9986805Y10902478D01*
X-9986805Y10902478D01*
G37*
G36*
X10333195Y10902478D02*
X10382267Y10892717D01*
X10520942Y10835276D01*
X10645750Y10751882D01*
X10751882Y10645750D01*
X10835276Y10520942D01*
X10892717Y10382266D01*
X10922000Y10235052D01*
X10922000Y10084948D01*
X10892717Y9937734D01*
X10835276Y9799058D01*
X10751882Y9674250D01*
X10645750Y9568118D01*
X10645747Y9568116D01*
X10520942Y9484724D01*
X10382267Y9427283D01*
X10333195Y9417522D01*
X10235052Y9398000D01*
X10084948Y9398000D01*
X9986805Y9417522D01*
X9937733Y9427283D01*
X9799058Y9484724D01*
X9674253Y9568116D01*
X9674250Y9568118D01*
X9568118Y9674250D01*
X9484724Y9799058D01*
X9427283Y9937734D01*
X9398000Y10084948D01*
X9398000Y10235052D01*
X9427283Y10382266D01*
X9484724Y10520942D01*
X9568118Y10645750D01*
X9674250Y10751882D01*
X9799058Y10835276D01*
X9937733Y10892717D01*
X9986805Y10902478D01*
X10084948Y10922000D01*
X10235052Y10922000D01*
X10333195Y10902478D01*
X10333195Y10902478D01*
G37*
G36*
X861134Y10276360D02*
X930472Y10247639D01*
X992874Y10205943D01*
X1045943Y10152874D01*
X1087639Y10090472D01*
X1116360Y10021134D01*
X1131001Y9947525D01*
X1131001Y9872475D01*
X1116360Y9798866D01*
X1087639Y9729528D01*
X1045943Y9667126D01*
X992874Y9614057D01*
X930472Y9572361D01*
X861134Y9543640D01*
X787525Y9528999D01*
X712475Y9528999D01*
X638866Y9543640D01*
X569528Y9572361D01*
X507126Y9614057D01*
X454057Y9667126D01*
X412361Y9729528D01*
X383640Y9798866D01*
X368999Y9872475D01*
X368999Y9947525D01*
X383640Y10021134D01*
X412361Y10090472D01*
X454057Y10152874D01*
X507126Y10205943D01*
X569528Y10247639D01*
X638866Y10276360D01*
X712475Y10291001D01*
X787525Y10291001D01*
X861134Y10276360D01*
X861134Y10276360D01*
G37*
G36*
X3861134Y10276360D02*
X3930472Y10247639D01*
X3992874Y10205943D01*
X4045943Y10152874D01*
X4087639Y10090472D01*
X4116360Y10021134D01*
X4131001Y9947525D01*
X4131001Y9872475D01*
X4116360Y9798866D01*
X4087639Y9729528D01*
X4045943Y9667126D01*
X3992874Y9614057D01*
X3930472Y9572361D01*
X3861134Y9543640D01*
X3787525Y9528999D01*
X3712475Y9528999D01*
X3638866Y9543640D01*
X3569528Y9572361D01*
X3507126Y9614057D01*
X3454057Y9667126D01*
X3412361Y9729528D01*
X3383640Y9798866D01*
X3368999Y9872475D01*
X3368999Y9947525D01*
X3383640Y10021134D01*
X3412361Y10090472D01*
X3454057Y10152874D01*
X3507126Y10205943D01*
X3569528Y10247639D01*
X3638866Y10276360D01*
X3712475Y10291001D01*
X3787525Y10291001D01*
X3861134Y10276360D01*
X3861134Y10276360D01*
G37*
G36*
X2361134Y10276360D02*
X2430472Y10247639D01*
X2492874Y10205943D01*
X2545943Y10152874D01*
X2587639Y10090472D01*
X2616360Y10021134D01*
X2631001Y9947525D01*
X2631001Y9872475D01*
X2616360Y9798866D01*
X2587639Y9729528D01*
X2545943Y9667126D01*
X2492874Y9614057D01*
X2430472Y9572361D01*
X2361134Y9543640D01*
X2287525Y9528999D01*
X2212475Y9528999D01*
X2138866Y9543640D01*
X2069528Y9572361D01*
X2007126Y9614057D01*
X1954057Y9667126D01*
X1912361Y9729528D01*
X1883640Y9798866D01*
X1868999Y9872475D01*
X1868999Y9947525D01*
X1883640Y10021134D01*
X1912361Y10090472D01*
X1954057Y10152874D01*
X2007126Y10205943D01*
X2069528Y10247639D01*
X2138866Y10276360D01*
X2212475Y10291001D01*
X2287525Y10291001D01*
X2361134Y10276360D01*
X2361134Y10276360D01*
G37*
G36*
X-3638866Y10276360D02*
X-3569528Y10247639D01*
X-3507126Y10205943D01*
X-3454057Y10152874D01*
X-3412361Y10090472D01*
X-3383640Y10021134D01*
X-3368999Y9947525D01*
X-3368999Y9872475D01*
X-3383640Y9798866D01*
X-3412361Y9729528D01*
X-3454057Y9667126D01*
X-3507126Y9614057D01*
X-3569528Y9572361D01*
X-3638866Y9543640D01*
X-3712475Y9528999D01*
X-3787525Y9528999D01*
X-3861134Y9543640D01*
X-3930472Y9572361D01*
X-3992874Y9614057D01*
X-4045943Y9667126D01*
X-4087639Y9729528D01*
X-4116360Y9798866D01*
X-4131001Y9872475D01*
X-4131001Y9947525D01*
X-4116360Y10021134D01*
X-4087639Y10090472D01*
X-4045943Y10152874D01*
X-3992874Y10205943D01*
X-3930472Y10247639D01*
X-3861134Y10276360D01*
X-3787525Y10291001D01*
X-3712475Y10291001D01*
X-3638866Y10276360D01*
X-3638866Y10276360D01*
G37*
G36*
X-638866Y10276360D02*
X-569528Y10247639D01*
X-507126Y10205943D01*
X-454057Y10152874D01*
X-412361Y10090472D01*
X-383640Y10021134D01*
X-368999Y9947525D01*
X-368999Y9872475D01*
X-383640Y9798866D01*
X-412361Y9729528D01*
X-454057Y9667126D01*
X-507126Y9614057D01*
X-569528Y9572361D01*
X-638866Y9543640D01*
X-712475Y9528999D01*
X-787525Y9528999D01*
X-861134Y9543640D01*
X-930472Y9572361D01*
X-992874Y9614057D01*
X-1045943Y9667126D01*
X-1087639Y9729528D01*
X-1116360Y9798866D01*
X-1131001Y9872475D01*
X-1131001Y9947525D01*
X-1116360Y10021134D01*
X-1087639Y10090472D01*
X-1045943Y10152874D01*
X-992874Y10205943D01*
X-930472Y10247639D01*
X-861134Y10276360D01*
X-787525Y10291001D01*
X-712475Y10291001D01*
X-638866Y10276360D01*
X-638866Y10276360D01*
G37*
G36*
X-2138866Y10276360D02*
X-2069528Y10247639D01*
X-2007126Y10205943D01*
X-1954057Y10152874D01*
X-1912361Y10090472D01*
X-1883640Y10021134D01*
X-1868999Y9947525D01*
X-1868999Y9872475D01*
X-1883640Y9798866D01*
X-1912361Y9729528D01*
X-1954057Y9667126D01*
X-2007126Y9614057D01*
X-2069528Y9572361D01*
X-2138866Y9543640D01*
X-2212475Y9528999D01*
X-2287525Y9528999D01*
X-2361134Y9543640D01*
X-2430472Y9572361D01*
X-2492874Y9614057D01*
X-2545943Y9667126D01*
X-2587639Y9729528D01*
X-2616360Y9798866D01*
X-2631001Y9872475D01*
X-2631001Y9947525D01*
X-2616360Y10021134D01*
X-2587639Y10090472D01*
X-2545943Y10152874D01*
X-2492874Y10205943D01*
X-2430472Y10247639D01*
X-2361134Y10276360D01*
X-2287525Y10291001D01*
X-2212475Y10291001D01*
X-2138866Y10276360D01*
X-2138866Y10276360D01*
G37*
G36*
X-3638866Y11776360D02*
X-3569528Y11747639D01*
X-3507126Y11705943D01*
X-3454057Y11652874D01*
X-3412361Y11590472D01*
X-3383640Y11521134D01*
X-3368999Y11447525D01*
X-3368999Y11372475D01*
X-3383640Y11298866D01*
X-3412361Y11229528D01*
X-3454057Y11167126D01*
X-3507126Y11114057D01*
X-3569528Y11072361D01*
X-3638866Y11043640D01*
X-3712475Y11028999D01*
X-3787525Y11028999D01*
X-3861134Y11043640D01*
X-3930472Y11072361D01*
X-3992874Y11114057D01*
X-4045943Y11167126D01*
X-4087639Y11229528D01*
X-4116360Y11298866D01*
X-4131001Y11372475D01*
X-4131001Y11447525D01*
X-4116360Y11521134D01*
X-4087639Y11590472D01*
X-4045943Y11652874D01*
X-3992874Y11705943D01*
X-3930472Y11747639D01*
X-3861134Y11776360D01*
X-3787525Y11791001D01*
X-3712475Y11791001D01*
X-3638866Y11776360D01*
X-3638866Y11776360D01*
G37*
G36*
X-638866Y11776360D02*
X-569528Y11747639D01*
X-507126Y11705943D01*
X-454057Y11652874D01*
X-412361Y11590472D01*
X-383640Y11521134D01*
X-368999Y11447525D01*
X-368999Y11372475D01*
X-383640Y11298866D01*
X-412361Y11229528D01*
X-454057Y11167126D01*
X-507126Y11114057D01*
X-569528Y11072361D01*
X-638866Y11043640D01*
X-712475Y11028999D01*
X-787525Y11028999D01*
X-861134Y11043640D01*
X-930472Y11072361D01*
X-992874Y11114057D01*
X-1045943Y11167126D01*
X-1087639Y11229528D01*
X-1116360Y11298866D01*
X-1131001Y11372475D01*
X-1131001Y11447525D01*
X-1116360Y11521134D01*
X-1087639Y11590472D01*
X-1045943Y11652874D01*
X-992874Y11705943D01*
X-930472Y11747639D01*
X-861134Y11776360D01*
X-787525Y11791001D01*
X-712475Y11791001D01*
X-638866Y11776360D01*
X-638866Y11776360D01*
G37*
G36*
X-2138866Y11776360D02*
X-2069528Y11747639D01*
X-2007126Y11705943D01*
X-1954057Y11652874D01*
X-1912361Y11590472D01*
X-1883640Y11521134D01*
X-1868999Y11447525D01*
X-1868999Y11372475D01*
X-1883640Y11298866D01*
X-1912361Y11229528D01*
X-1954057Y11167126D01*
X-2007126Y11114057D01*
X-2069528Y11072361D01*
X-2138866Y11043640D01*
X-2212475Y11028999D01*
X-2287525Y11028999D01*
X-2361134Y11043640D01*
X-2430472Y11072361D01*
X-2492874Y11114057D01*
X-2545943Y11167126D01*
X-2587639Y11229528D01*
X-2616360Y11298866D01*
X-2631001Y11372475D01*
X-2631001Y11447525D01*
X-2616360Y11521134D01*
X-2587639Y11590472D01*
X-2545943Y11652874D01*
X-2492874Y11705943D01*
X-2430472Y11747639D01*
X-2361134Y11776360D01*
X-2287525Y11791001D01*
X-2212475Y11791001D01*
X-2138866Y11776360D01*
X-2138866Y11776360D01*
G37*
G36*
X861134Y11776360D02*
X930472Y11747639D01*
X992874Y11705943D01*
X1045943Y11652874D01*
X1087639Y11590472D01*
X1116360Y11521134D01*
X1131001Y11447525D01*
X1131001Y11372475D01*
X1116360Y11298866D01*
X1087639Y11229528D01*
X1045943Y11167126D01*
X992874Y11114057D01*
X930472Y11072361D01*
X861134Y11043640D01*
X787525Y11028999D01*
X712475Y11028999D01*
X638866Y11043640D01*
X569528Y11072361D01*
X507126Y11114057D01*
X454057Y11167126D01*
X412361Y11229528D01*
X383640Y11298866D01*
X368999Y11372475D01*
X368999Y11447525D01*
X383640Y11521134D01*
X412361Y11590472D01*
X454057Y11652874D01*
X507126Y11705943D01*
X569528Y11747639D01*
X638866Y11776360D01*
X712475Y11791001D01*
X787525Y11791001D01*
X861134Y11776360D01*
X861134Y11776360D01*
G37*
G36*
X2361134Y11776360D02*
X2430472Y11747639D01*
X2492874Y11705943D01*
X2545943Y11652874D01*
X2587639Y11590472D01*
X2616360Y11521134D01*
X2631001Y11447525D01*
X2631001Y11372475D01*
X2616360Y11298866D01*
X2587639Y11229528D01*
X2545943Y11167126D01*
X2492874Y11114057D01*
X2430472Y11072361D01*
X2361134Y11043640D01*
X2287525Y11028999D01*
X2212475Y11028999D01*
X2138866Y11043640D01*
X2069528Y11072361D01*
X2007126Y11114057D01*
X1954057Y11167126D01*
X1912361Y11229528D01*
X1883640Y11298866D01*
X1868999Y11372475D01*
X1868999Y11447525D01*
X1883640Y11521134D01*
X1912361Y11590472D01*
X1954057Y11652874D01*
X2007126Y11705943D01*
X2069528Y11747639D01*
X2138866Y11776360D01*
X2212475Y11791001D01*
X2287525Y11791001D01*
X2361134Y11776360D01*
X2361134Y11776360D01*
G37*
G36*
X3861134Y11776360D02*
X3930472Y11747639D01*
X3992874Y11705943D01*
X4045943Y11652874D01*
X4087639Y11590472D01*
X4116360Y11521134D01*
X4131001Y11447525D01*
X4131001Y11372475D01*
X4116360Y11298866D01*
X4087639Y11229528D01*
X4045943Y11167126D01*
X3992874Y11114057D01*
X3930472Y11072361D01*
X3861134Y11043640D01*
X3787525Y11028999D01*
X3712475Y11028999D01*
X3638866Y11043640D01*
X3569528Y11072361D01*
X3507126Y11114057D01*
X3454057Y11167126D01*
X3412361Y11229528D01*
X3383640Y11298866D01*
X3368999Y11372475D01*
X3368999Y11447525D01*
X3383640Y11521134D01*
X3412361Y11590472D01*
X3454057Y11652874D01*
X3507126Y11705943D01*
X3569528Y11747639D01*
X3638866Y11776360D01*
X3712475Y11791001D01*
X3787525Y11791001D01*
X3861134Y11776360D01*
X3861134Y11776360D01*
G37*
G36*
X10333195Y13442478D02*
X10382267Y13432717D01*
X10520942Y13375276D01*
X10645750Y13291882D01*
X10751882Y13185750D01*
X10751884Y13185747D01*
X10835276Y13060942D01*
X10882255Y12947525D01*
X10892717Y12922266D01*
X10922000Y12775052D01*
X10922000Y12624948D01*
X10892717Y12477734D01*
X10835276Y12339058D01*
X10751882Y12214250D01*
X10645750Y12108118D01*
X10645747Y12108116D01*
X10520942Y12024724D01*
X10382267Y11967283D01*
X10333195Y11957522D01*
X10235052Y11938000D01*
X10084948Y11938000D01*
X9986805Y11957522D01*
X9937733Y11967283D01*
X9799058Y12024724D01*
X9674253Y12108116D01*
X9674250Y12108118D01*
X9568118Y12214250D01*
X9484724Y12339058D01*
X9427283Y12477734D01*
X9398000Y12624948D01*
X9398000Y12775052D01*
X9427283Y12922266D01*
X9437746Y12947525D01*
X9484724Y13060942D01*
X9568116Y13185747D01*
X9568118Y13185750D01*
X9674250Y13291882D01*
X9799058Y13375276D01*
X9937733Y13432717D01*
X9986805Y13442478D01*
X10084948Y13462000D01*
X10235052Y13462000D01*
X10333195Y13442478D01*
X10333195Y13442478D01*
G37*
G36*
X-9986805Y13442478D02*
X-9937733Y13432717D01*
X-9799058Y13375276D01*
X-9674250Y13291882D01*
X-9568118Y13185750D01*
X-9568116Y13185747D01*
X-9484724Y13060942D01*
X-9437745Y12947525D01*
X-9427283Y12922266D01*
X-9398000Y12775052D01*
X-9398000Y12624948D01*
X-9427283Y12477734D01*
X-9484724Y12339058D01*
X-9568118Y12214250D01*
X-9674250Y12108118D01*
X-9674253Y12108116D01*
X-9799058Y12024724D01*
X-9937733Y11967283D01*
X-9986805Y11957522D01*
X-10084948Y11938000D01*
X-10235052Y11938000D01*
X-10333195Y11957522D01*
X-10382267Y11967283D01*
X-10520942Y12024724D01*
X-10645747Y12108116D01*
X-10645750Y12108118D01*
X-10751882Y12214250D01*
X-10835276Y12339058D01*
X-10892717Y12477734D01*
X-10922000Y12624948D01*
X-10922000Y12775052D01*
X-10892717Y12922266D01*
X-10882254Y12947525D01*
X-10835276Y13060942D01*
X-10751884Y13185747D01*
X-10751882Y13185750D01*
X-10645750Y13291882D01*
X-10520942Y13375276D01*
X-10382267Y13432717D01*
X-10333195Y13442478D01*
X-10235052Y13462000D01*
X-10084948Y13462000D01*
X-9986805Y13442478D01*
X-9986805Y13442478D01*
G37*
G36*
X-3638866Y13276360D02*
X-3569528Y13247639D01*
X-3507126Y13205943D01*
X-3454057Y13152874D01*
X-3412361Y13090472D01*
X-3383640Y13021134D01*
X-3368999Y12947525D01*
X-3368999Y12872475D01*
X-3383640Y12798866D01*
X-3412361Y12729528D01*
X-3454057Y12667126D01*
X-3507126Y12614057D01*
X-3569528Y12572361D01*
X-3638866Y12543640D01*
X-3712475Y12528999D01*
X-3787525Y12528999D01*
X-3861134Y12543640D01*
X-3930472Y12572361D01*
X-3992874Y12614057D01*
X-4045943Y12667126D01*
X-4087639Y12729528D01*
X-4116360Y12798866D01*
X-4131001Y12872475D01*
X-4131001Y12947525D01*
X-4116360Y13021134D01*
X-4087639Y13090472D01*
X-4045943Y13152874D01*
X-3992874Y13205943D01*
X-3930472Y13247639D01*
X-3861134Y13276360D01*
X-3787525Y13291001D01*
X-3712475Y13291001D01*
X-3638866Y13276360D01*
X-3638866Y13276360D01*
G37*
G36*
X3861134Y13276360D02*
X3930472Y13247639D01*
X3992874Y13205943D01*
X4045943Y13152874D01*
X4087639Y13090472D01*
X4116360Y13021134D01*
X4131001Y12947525D01*
X4131001Y12872475D01*
X4116360Y12798866D01*
X4087639Y12729528D01*
X4045943Y12667126D01*
X3992874Y12614057D01*
X3930472Y12572361D01*
X3861134Y12543640D01*
X3787525Y12528999D01*
X3712475Y12528999D01*
X3638866Y12543640D01*
X3569528Y12572361D01*
X3507126Y12614057D01*
X3454057Y12667126D01*
X3412361Y12729528D01*
X3383640Y12798866D01*
X3368999Y12872475D01*
X3368999Y12947525D01*
X3383640Y13021134D01*
X3412361Y13090472D01*
X3454057Y13152874D01*
X3507126Y13205943D01*
X3569528Y13247639D01*
X3638866Y13276360D01*
X3712475Y13291001D01*
X3787525Y13291001D01*
X3861134Y13276360D01*
X3861134Y13276360D01*
G37*
G36*
X-2138866Y13276360D02*
X-2069528Y13247639D01*
X-2007126Y13205943D01*
X-1954057Y13152874D01*
X-1912361Y13090472D01*
X-1883640Y13021134D01*
X-1868999Y12947525D01*
X-1868999Y12872475D01*
X-1883640Y12798866D01*
X-1912361Y12729528D01*
X-1954057Y12667126D01*
X-2007126Y12614057D01*
X-2069528Y12572361D01*
X-2138866Y12543640D01*
X-2212475Y12528999D01*
X-2287525Y12528999D01*
X-2361134Y12543640D01*
X-2430472Y12572361D01*
X-2492874Y12614057D01*
X-2545943Y12667126D01*
X-2587639Y12729528D01*
X-2616360Y12798866D01*
X-2631001Y12872475D01*
X-2631001Y12947525D01*
X-2616360Y13021134D01*
X-2587639Y13090472D01*
X-2545943Y13152874D01*
X-2492874Y13205943D01*
X-2430472Y13247639D01*
X-2361134Y13276360D01*
X-2287525Y13291001D01*
X-2212475Y13291001D01*
X-2138866Y13276360D01*
X-2138866Y13276360D01*
G37*
G36*
X-638866Y13276360D02*
X-569528Y13247639D01*
X-507126Y13205943D01*
X-454057Y13152874D01*
X-412361Y13090472D01*
X-383640Y13021134D01*
X-368999Y12947525D01*
X-368999Y12872475D01*
X-383640Y12798866D01*
X-412361Y12729528D01*
X-454057Y12667126D01*
X-507126Y12614057D01*
X-569528Y12572361D01*
X-638866Y12543640D01*
X-712475Y12528999D01*
X-787525Y12528999D01*
X-861134Y12543640D01*
X-930472Y12572361D01*
X-992874Y12614057D01*
X-1045943Y12667126D01*
X-1087639Y12729528D01*
X-1116360Y12798866D01*
X-1131001Y12872475D01*
X-1131001Y12947525D01*
X-1116360Y13021134D01*
X-1087639Y13090472D01*
X-1045943Y13152874D01*
X-992874Y13205943D01*
X-930472Y13247639D01*
X-861134Y13276360D01*
X-787525Y13291001D01*
X-712475Y13291001D01*
X-638866Y13276360D01*
X-638866Y13276360D01*
G37*
G36*
X861134Y13276360D02*
X930472Y13247639D01*
X992874Y13205943D01*
X1045943Y13152874D01*
X1087639Y13090472D01*
X1116360Y13021134D01*
X1131001Y12947525D01*
X1131001Y12872475D01*
X1116360Y12798866D01*
X1087639Y12729528D01*
X1045943Y12667126D01*
X992874Y12614057D01*
X930472Y12572361D01*
X861134Y12543640D01*
X787525Y12528999D01*
X712475Y12528999D01*
X638866Y12543640D01*
X569528Y12572361D01*
X507126Y12614057D01*
X454057Y12667126D01*
X412361Y12729528D01*
X383640Y12798866D01*
X368999Y12872475D01*
X368999Y12947525D01*
X383640Y13021134D01*
X412361Y13090472D01*
X454057Y13152874D01*
X507126Y13205943D01*
X569528Y13247639D01*
X638866Y13276360D01*
X712475Y13291001D01*
X787525Y13291001D01*
X861134Y13276360D01*
X861134Y13276360D01*
G37*
G36*
X2361134Y13276360D02*
X2430472Y13247639D01*
X2492874Y13205943D01*
X2545943Y13152874D01*
X2587639Y13090472D01*
X2616360Y13021134D01*
X2631001Y12947525D01*
X2631001Y12872475D01*
X2616360Y12798866D01*
X2587639Y12729528D01*
X2545943Y12667126D01*
X2492874Y12614057D01*
X2430472Y12572361D01*
X2361134Y12543640D01*
X2287525Y12528999D01*
X2212475Y12528999D01*
X2138866Y12543640D01*
X2069528Y12572361D01*
X2007126Y12614057D01*
X1954057Y12667126D01*
X1912361Y12729528D01*
X1883640Y12798866D01*
X1868999Y12872475D01*
X1868999Y12947525D01*
X1883640Y13021134D01*
X1912361Y13090472D01*
X1954057Y13152874D01*
X2007126Y13205943D01*
X2069528Y13247639D01*
X2138866Y13276360D01*
X2212475Y13291001D01*
X2287525Y13291001D01*
X2361134Y13276360D01*
X2361134Y13276360D01*
G37*
G36*
X-2138866Y14776360D02*
X-2069528Y14747639D01*
X-2007126Y14705943D01*
X-1954057Y14652874D01*
X-1912361Y14590472D01*
X-1883640Y14521134D01*
X-1868999Y14447525D01*
X-1868999Y14372475D01*
X-1883640Y14298866D01*
X-1912361Y14229528D01*
X-1954057Y14167126D01*
X-2007126Y14114057D01*
X-2069528Y14072361D01*
X-2138866Y14043640D01*
X-2212475Y14028999D01*
X-2287525Y14028999D01*
X-2361134Y14043640D01*
X-2430472Y14072361D01*
X-2492874Y14114057D01*
X-2545943Y14167126D01*
X-2587639Y14229528D01*
X-2616360Y14298866D01*
X-2631001Y14372475D01*
X-2631001Y14447525D01*
X-2616360Y14521134D01*
X-2587639Y14590472D01*
X-2545943Y14652874D01*
X-2492874Y14705943D01*
X-2430472Y14747639D01*
X-2361134Y14776360D01*
X-2287525Y14791001D01*
X-2212475Y14791001D01*
X-2138866Y14776360D01*
X-2138866Y14776360D01*
G37*
G36*
X-3638866Y14776360D02*
X-3569528Y14747639D01*
X-3507126Y14705943D01*
X-3454057Y14652874D01*
X-3412361Y14590472D01*
X-3383640Y14521134D01*
X-3368999Y14447525D01*
X-3368999Y14372475D01*
X-3383640Y14298866D01*
X-3412361Y14229528D01*
X-3454057Y14167126D01*
X-3507126Y14114057D01*
X-3569528Y14072361D01*
X-3638866Y14043640D01*
X-3712475Y14028999D01*
X-3787525Y14028999D01*
X-3861134Y14043640D01*
X-3930472Y14072361D01*
X-3992874Y14114057D01*
X-4045943Y14167126D01*
X-4087639Y14229528D01*
X-4116360Y14298866D01*
X-4131001Y14372475D01*
X-4131001Y14447525D01*
X-4116360Y14521134D01*
X-4087639Y14590472D01*
X-4045943Y14652874D01*
X-3992874Y14705943D01*
X-3930472Y14747639D01*
X-3861134Y14776360D01*
X-3787525Y14791001D01*
X-3712475Y14791001D01*
X-3638866Y14776360D01*
X-3638866Y14776360D01*
G37*
G36*
X-638866Y14776360D02*
X-569528Y14747639D01*
X-507126Y14705943D01*
X-454057Y14652874D01*
X-412361Y14590472D01*
X-383640Y14521134D01*
X-368999Y14447525D01*
X-368999Y14372475D01*
X-383640Y14298866D01*
X-412361Y14229528D01*
X-454057Y14167126D01*
X-507126Y14114057D01*
X-569528Y14072361D01*
X-638866Y14043640D01*
X-712475Y14028999D01*
X-787525Y14028999D01*
X-861134Y14043640D01*
X-930472Y14072361D01*
X-992874Y14114057D01*
X-1045943Y14167126D01*
X-1087639Y14229528D01*
X-1116360Y14298866D01*
X-1131001Y14372475D01*
X-1131001Y14447525D01*
X-1116360Y14521134D01*
X-1087639Y14590472D01*
X-1045943Y14652874D01*
X-992874Y14705943D01*
X-930472Y14747639D01*
X-861134Y14776360D01*
X-787525Y14791001D01*
X-712475Y14791001D01*
X-638866Y14776360D01*
X-638866Y14776360D01*
G37*
G36*
X2361134Y14776360D02*
X2430472Y14747639D01*
X2492874Y14705943D01*
X2545943Y14652874D01*
X2587639Y14590472D01*
X2616360Y14521134D01*
X2631001Y14447525D01*
X2631001Y14372475D01*
X2616360Y14298866D01*
X2587639Y14229528D01*
X2545943Y14167126D01*
X2492874Y14114057D01*
X2430472Y14072361D01*
X2361134Y14043640D01*
X2287525Y14028999D01*
X2212475Y14028999D01*
X2138866Y14043640D01*
X2069528Y14072361D01*
X2007126Y14114057D01*
X1954057Y14167126D01*
X1912361Y14229528D01*
X1883640Y14298866D01*
X1868999Y14372475D01*
X1868999Y14447525D01*
X1883640Y14521134D01*
X1912361Y14590472D01*
X1954057Y14652874D01*
X2007126Y14705943D01*
X2069528Y14747639D01*
X2138866Y14776360D01*
X2212475Y14791001D01*
X2287525Y14791001D01*
X2361134Y14776360D01*
X2361134Y14776360D01*
G37*
G36*
X861134Y14776360D02*
X930472Y14747639D01*
X992874Y14705943D01*
X1045943Y14652874D01*
X1087639Y14590472D01*
X1116360Y14521134D01*
X1131001Y14447525D01*
X1131001Y14372475D01*
X1116360Y14298866D01*
X1087639Y14229528D01*
X1045943Y14167126D01*
X992874Y14114057D01*
X930472Y14072361D01*
X861134Y14043640D01*
X787525Y14028999D01*
X712475Y14028999D01*
X638866Y14043640D01*
X569528Y14072361D01*
X507126Y14114057D01*
X454057Y14167126D01*
X412361Y14229528D01*
X383640Y14298866D01*
X368999Y14372475D01*
X368999Y14447525D01*
X383640Y14521134D01*
X412361Y14590472D01*
X454057Y14652874D01*
X507126Y14705943D01*
X569528Y14747639D01*
X638866Y14776360D01*
X712475Y14791001D01*
X787525Y14791001D01*
X861134Y14776360D01*
X861134Y14776360D01*
G37*
G36*
X3861134Y14776360D02*
X3930472Y14747639D01*
X3992874Y14705943D01*
X4045943Y14652874D01*
X4087639Y14590472D01*
X4116360Y14521134D01*
X4131001Y14447525D01*
X4131001Y14372475D01*
X4116360Y14298866D01*
X4087639Y14229528D01*
X4045943Y14167126D01*
X3992874Y14114057D01*
X3930472Y14072361D01*
X3861134Y14043640D01*
X3787525Y14028999D01*
X3712475Y14028999D01*
X3638866Y14043640D01*
X3569528Y14072361D01*
X3507126Y14114057D01*
X3454057Y14167126D01*
X3412361Y14229528D01*
X3383640Y14298866D01*
X3368999Y14372475D01*
X3368999Y14447525D01*
X3383640Y14521134D01*
X3412361Y14590472D01*
X3454057Y14652874D01*
X3507126Y14705943D01*
X3569528Y14747639D01*
X3638866Y14776360D01*
X3712475Y14791001D01*
X3787525Y14791001D01*
X3861134Y14776360D01*
X3861134Y14776360D01*
G37*
G36*
X10333195Y15982478D02*
X10382267Y15972717D01*
X10520942Y15915276D01*
X10645750Y15831882D01*
X10751882Y15725750D01*
X10835276Y15600942D01*
X10892717Y15462266D01*
X10922000Y15315052D01*
X10922000Y15164948D01*
X10892717Y15017734D01*
X10835276Y14879058D01*
X10751882Y14754250D01*
X10645750Y14648118D01*
X10645747Y14648116D01*
X10520942Y14564724D01*
X10382267Y14507283D01*
X10333195Y14497522D01*
X10235052Y14478000D01*
X10084948Y14478000D01*
X9986805Y14497522D01*
X9937733Y14507283D01*
X9799058Y14564724D01*
X9674253Y14648116D01*
X9674250Y14648118D01*
X9568118Y14754250D01*
X9484724Y14879058D01*
X9427283Y15017734D01*
X9398000Y15164948D01*
X9398000Y15315052D01*
X9427283Y15462266D01*
X9484724Y15600942D01*
X9568118Y15725750D01*
X9674250Y15831882D01*
X9799058Y15915276D01*
X9937733Y15972717D01*
X9986805Y15982478D01*
X10084948Y16002000D01*
X10235052Y16002000D01*
X10333195Y15982478D01*
X10333195Y15982478D01*
G37*
G36*
X-9986805Y15982478D02*
X-9937733Y15972717D01*
X-9799058Y15915276D01*
X-9674250Y15831882D01*
X-9568118Y15725750D01*
X-9484724Y15600942D01*
X-9427283Y15462266D01*
X-9398000Y15315052D01*
X-9398000Y15164948D01*
X-9427283Y15017734D01*
X-9484724Y14879058D01*
X-9568118Y14754250D01*
X-9674250Y14648118D01*
X-9674253Y14648116D01*
X-9799058Y14564724D01*
X-9937733Y14507283D01*
X-9986805Y14497522D01*
X-10084948Y14478000D01*
X-10235052Y14478000D01*
X-10333195Y14497522D01*
X-10382267Y14507283D01*
X-10520942Y14564724D01*
X-10645747Y14648116D01*
X-10645750Y14648118D01*
X-10751882Y14754250D01*
X-10835276Y14879058D01*
X-10892717Y15017734D01*
X-10922000Y15164948D01*
X-10922000Y15315052D01*
X-10892717Y15462266D01*
X-10835276Y15600942D01*
X-10751882Y15725750D01*
X-10645750Y15831882D01*
X-10520942Y15915276D01*
X-10382267Y15972717D01*
X-10333195Y15982478D01*
X-10235052Y16002000D01*
X-10084948Y16002000D01*
X-9986805Y15982478D01*
X-9986805Y15982478D01*
G37*
G36*
X-638866Y16276360D02*
X-569528Y16247639D01*
X-507126Y16205943D01*
X-454057Y16152874D01*
X-412361Y16090472D01*
X-383640Y16021134D01*
X-368999Y15947525D01*
X-368999Y15872475D01*
X-383640Y15798866D01*
X-412361Y15729528D01*
X-454057Y15667126D01*
X-507126Y15614057D01*
X-569528Y15572361D01*
X-638866Y15543640D01*
X-712475Y15528999D01*
X-787525Y15528999D01*
X-861134Y15543640D01*
X-930472Y15572361D01*
X-992874Y15614057D01*
X-1045943Y15667126D01*
X-1087639Y15729528D01*
X-1116360Y15798866D01*
X-1131001Y15872475D01*
X-1131001Y15947525D01*
X-1116360Y16021134D01*
X-1087639Y16090472D01*
X-1045943Y16152874D01*
X-992874Y16205943D01*
X-930472Y16247639D01*
X-861134Y16276360D01*
X-787525Y16291001D01*
X-712475Y16291001D01*
X-638866Y16276360D01*
X-638866Y16276360D01*
G37*
G36*
X-2138866Y16276360D02*
X-2069528Y16247639D01*
X-2007126Y16205943D01*
X-1954057Y16152874D01*
X-1912361Y16090472D01*
X-1883640Y16021134D01*
X-1868999Y15947525D01*
X-1868999Y15872475D01*
X-1883640Y15798866D01*
X-1912361Y15729528D01*
X-1954057Y15667126D01*
X-2007126Y15614057D01*
X-2069528Y15572361D01*
X-2138866Y15543640D01*
X-2212475Y15528999D01*
X-2287525Y15528999D01*
X-2361134Y15543640D01*
X-2430472Y15572361D01*
X-2492874Y15614057D01*
X-2545943Y15667126D01*
X-2587639Y15729528D01*
X-2616360Y15798866D01*
X-2631001Y15872475D01*
X-2631001Y15947525D01*
X-2616360Y16021134D01*
X-2587639Y16090472D01*
X-2545943Y16152874D01*
X-2492874Y16205943D01*
X-2430472Y16247639D01*
X-2361134Y16276360D01*
X-2287525Y16291001D01*
X-2212475Y16291001D01*
X-2138866Y16276360D01*
X-2138866Y16276360D01*
G37*
G36*
X-3638866Y16276360D02*
X-3569528Y16247639D01*
X-3507126Y16205943D01*
X-3454057Y16152874D01*
X-3412361Y16090472D01*
X-3383640Y16021134D01*
X-3368999Y15947525D01*
X-3368999Y15872475D01*
X-3383640Y15798866D01*
X-3412361Y15729528D01*
X-3454057Y15667126D01*
X-3507126Y15614057D01*
X-3569528Y15572361D01*
X-3638866Y15543640D01*
X-3712475Y15528999D01*
X-3787525Y15528999D01*
X-3861134Y15543640D01*
X-3930472Y15572361D01*
X-3992874Y15614057D01*
X-4045943Y15667126D01*
X-4087639Y15729528D01*
X-4116360Y15798866D01*
X-4131001Y15872475D01*
X-4131001Y15947525D01*
X-4116360Y16021134D01*
X-4087639Y16090472D01*
X-4045943Y16152874D01*
X-3992874Y16205943D01*
X-3930472Y16247639D01*
X-3861134Y16276360D01*
X-3787525Y16291001D01*
X-3712475Y16291001D01*
X-3638866Y16276360D01*
X-3638866Y16276360D01*
G37*
G36*
X2361134Y16276360D02*
X2430472Y16247639D01*
X2492874Y16205943D01*
X2545943Y16152874D01*
X2587639Y16090472D01*
X2616360Y16021134D01*
X2631001Y15947525D01*
X2631001Y15872475D01*
X2616360Y15798866D01*
X2587639Y15729528D01*
X2545943Y15667126D01*
X2492874Y15614057D01*
X2430472Y15572361D01*
X2361134Y15543640D01*
X2287525Y15528999D01*
X2212475Y15528999D01*
X2138866Y15543640D01*
X2069528Y15572361D01*
X2007126Y15614057D01*
X1954057Y15667126D01*
X1912361Y15729528D01*
X1883640Y15798866D01*
X1868999Y15872475D01*
X1868999Y15947525D01*
X1883640Y16021134D01*
X1912361Y16090472D01*
X1954057Y16152874D01*
X2007126Y16205943D01*
X2069528Y16247639D01*
X2138866Y16276360D01*
X2212475Y16291001D01*
X2287525Y16291001D01*
X2361134Y16276360D01*
X2361134Y16276360D01*
G37*
G36*
X3861134Y16276360D02*
X3930472Y16247639D01*
X3992874Y16205943D01*
X4045943Y16152874D01*
X4087639Y16090472D01*
X4116360Y16021134D01*
X4131001Y15947525D01*
X4131001Y15872475D01*
X4116360Y15798866D01*
X4087639Y15729528D01*
X4045943Y15667126D01*
X3992874Y15614057D01*
X3930472Y15572361D01*
X3861134Y15543640D01*
X3787525Y15528999D01*
X3712475Y15528999D01*
X3638866Y15543640D01*
X3569528Y15572361D01*
X3507126Y15614057D01*
X3454057Y15667126D01*
X3412361Y15729528D01*
X3383640Y15798866D01*
X3368999Y15872475D01*
X3368999Y15947525D01*
X3383640Y16021134D01*
X3412361Y16090472D01*
X3454057Y16152874D01*
X3507126Y16205943D01*
X3569528Y16247639D01*
X3638866Y16276360D01*
X3712475Y16291001D01*
X3787525Y16291001D01*
X3861134Y16276360D01*
X3861134Y16276360D01*
G37*
G36*
X861134Y16276360D02*
X930472Y16247639D01*
X992874Y16205943D01*
X1045943Y16152874D01*
X1087639Y16090472D01*
X1116360Y16021134D01*
X1131001Y15947525D01*
X1131001Y15872475D01*
X1116360Y15798866D01*
X1087639Y15729528D01*
X1045943Y15667126D01*
X992874Y15614057D01*
X930472Y15572361D01*
X861134Y15543640D01*
X787525Y15528999D01*
X712475Y15528999D01*
X638866Y15543640D01*
X569528Y15572361D01*
X507126Y15614057D01*
X454057Y15667126D01*
X412361Y15729528D01*
X383640Y15798866D01*
X368999Y15872475D01*
X368999Y15947525D01*
X383640Y16021134D01*
X412361Y16090472D01*
X454057Y16152874D01*
X507126Y16205943D01*
X569528Y16247639D01*
X638866Y16276360D01*
X712475Y16291001D01*
X787525Y16291001D01*
X861134Y16276360D01*
X861134Y16276360D01*
G37*
G36*
X-9986805Y18522478D02*
X-9937733Y18512717D01*
X-9799058Y18455276D01*
X-9674250Y18371882D01*
X-9568118Y18265750D01*
X-9484724Y18140942D01*
X-9427283Y18002266D01*
X-9398000Y17855052D01*
X-9398000Y17704948D01*
X-9427283Y17557734D01*
X-9484724Y17419058D01*
X-9568118Y17294250D01*
X-9674250Y17188118D01*
X-9674253Y17188116D01*
X-9799058Y17104724D01*
X-9937733Y17047283D01*
X-9986805Y17037522D01*
X-10084948Y17018000D01*
X-10235052Y17018000D01*
X-10333195Y17037522D01*
X-10382267Y17047283D01*
X-10520942Y17104724D01*
X-10645747Y17188116D01*
X-10645750Y17188118D01*
X-10751882Y17294250D01*
X-10835276Y17419058D01*
X-10892717Y17557734D01*
X-10922000Y17704948D01*
X-10922000Y17855052D01*
X-10892717Y18002266D01*
X-10835276Y18140942D01*
X-10751882Y18265750D01*
X-10645750Y18371882D01*
X-10520942Y18455276D01*
X-10382267Y18512717D01*
X-10333195Y18522478D01*
X-10235052Y18542000D01*
X-10084948Y18542000D01*
X-9986805Y18522478D01*
X-9986805Y18522478D01*
G37*
G36*
X10333195Y18522478D02*
X10382267Y18512717D01*
X10520942Y18455276D01*
X10645750Y18371882D01*
X10751882Y18265750D01*
X10835276Y18140942D01*
X10892717Y18002266D01*
X10922000Y17855052D01*
X10922000Y17704948D01*
X10892717Y17557734D01*
X10835276Y17419058D01*
X10751882Y17294250D01*
X10645750Y17188118D01*
X10645747Y17188116D01*
X10520942Y17104724D01*
X10382267Y17047283D01*
X10333195Y17037522D01*
X10235052Y17018000D01*
X10084948Y17018000D01*
X9986805Y17037522D01*
X9937733Y17047283D01*
X9799058Y17104724D01*
X9674253Y17188116D01*
X9674250Y17188118D01*
X9568118Y17294250D01*
X9484724Y17419058D01*
X9427283Y17557734D01*
X9398000Y17704948D01*
X9398000Y17855052D01*
X9427283Y18002266D01*
X9484724Y18140942D01*
X9568118Y18265750D01*
X9674250Y18371882D01*
X9799058Y18455276D01*
X9937733Y18512717D01*
X9986805Y18522478D01*
X10084948Y18542000D01*
X10235052Y18542000D01*
X10333195Y18522478D01*
X10333195Y18522478D01*
G37*
G36*
X10333195Y21062478D02*
X10382267Y21052717D01*
X10520942Y20995276D01*
X10645750Y20911882D01*
X10751882Y20805750D01*
X10835276Y20680942D01*
X10892717Y20542266D01*
X10922000Y20395052D01*
X10922000Y20244948D01*
X10892717Y20097734D01*
X10835276Y19959058D01*
X10751882Y19834250D01*
X10645750Y19728118D01*
X10645747Y19728116D01*
X10520942Y19644724D01*
X10382267Y19587283D01*
X10333195Y19577522D01*
X10235052Y19558000D01*
X10084948Y19558000D01*
X9986805Y19577522D01*
X9937733Y19587283D01*
X9799058Y19644724D01*
X9674253Y19728116D01*
X9674250Y19728118D01*
X9568118Y19834250D01*
X9484724Y19959058D01*
X9427283Y20097734D01*
X9398000Y20244948D01*
X9398000Y20395052D01*
X9427283Y20542266D01*
X9484724Y20680942D01*
X9568118Y20805750D01*
X9674250Y20911882D01*
X9799058Y20995276D01*
X9937733Y21052717D01*
X9986805Y21062478D01*
X10084948Y21082000D01*
X10235052Y21082000D01*
X10333195Y21062478D01*
X10333195Y21062478D01*
G37*
G36*
X-9986805Y21062478D02*
X-9937733Y21052717D01*
X-9799058Y20995276D01*
X-9674250Y20911882D01*
X-9568118Y20805750D01*
X-9484724Y20680942D01*
X-9427283Y20542266D01*
X-9398000Y20395052D01*
X-9398000Y20244948D01*
X-9427283Y20097734D01*
X-9484724Y19959058D01*
X-9568118Y19834250D01*
X-9674250Y19728118D01*
X-9674253Y19728116D01*
X-9799058Y19644724D01*
X-9937733Y19587283D01*
X-9986805Y19577522D01*
X-10084948Y19558000D01*
X-10235052Y19558000D01*
X-10333195Y19577522D01*
X-10382267Y19587283D01*
X-10520942Y19644724D01*
X-10645747Y19728116D01*
X-10645750Y19728118D01*
X-10751882Y19834250D01*
X-10835276Y19959058D01*
X-10892717Y20097734D01*
X-10922000Y20244948D01*
X-10922000Y20395052D01*
X-10892717Y20542266D01*
X-10835276Y20680942D01*
X-10751882Y20805750D01*
X-10645750Y20911882D01*
X-10520942Y20995276D01*
X-10382267Y21052717D01*
X-10333195Y21062478D01*
X-10235052Y21082000D01*
X-10084948Y21082000D01*
X-9986805Y21062478D01*
X-9986805Y21062478D01*
G37*
G36*
X10333195Y23602478D02*
X10382267Y23592717D01*
X10520942Y23535276D01*
X10645750Y23451882D01*
X10751882Y23345750D01*
X10835276Y23220942D01*
X10892717Y23082266D01*
X10922000Y22935052D01*
X10922000Y22784948D01*
X10892717Y22637734D01*
X10835276Y22499058D01*
X10751882Y22374250D01*
X10645750Y22268118D01*
X10645747Y22268116D01*
X10520942Y22184724D01*
X10382267Y22127283D01*
X10333195Y22117522D01*
X10235052Y22098000D01*
X10084948Y22098000D01*
X9986805Y22117522D01*
X9937733Y22127283D01*
X9799058Y22184724D01*
X9674253Y22268116D01*
X9674250Y22268118D01*
X9568118Y22374250D01*
X9484724Y22499058D01*
X9427283Y22637734D01*
X9398000Y22784948D01*
X9398000Y22935052D01*
X9427283Y23082266D01*
X9484724Y23220942D01*
X9568118Y23345750D01*
X9674250Y23451882D01*
X9799058Y23535276D01*
X9937733Y23592717D01*
X9986805Y23602478D01*
X10084948Y23622000D01*
X10235052Y23622000D01*
X10333195Y23602478D01*
X10333195Y23602478D01*
G37*
G36*
X-9986805Y23602478D02*
X-9937733Y23592717D01*
X-9799058Y23535276D01*
X-9674250Y23451882D01*
X-9568118Y23345750D01*
X-9484724Y23220942D01*
X-9427283Y23082266D01*
X-9398000Y22935052D01*
X-9398000Y22784948D01*
X-9427283Y22637734D01*
X-9484724Y22499058D01*
X-9568118Y22374250D01*
X-9674250Y22268118D01*
X-9674253Y22268116D01*
X-9799058Y22184724D01*
X-9937733Y22127283D01*
X-9986805Y22117522D01*
X-10084948Y22098000D01*
X-10235052Y22098000D01*
X-10333195Y22117522D01*
X-10382267Y22127283D01*
X-10520942Y22184724D01*
X-10645747Y22268116D01*
X-10645750Y22268118D01*
X-10751882Y22374250D01*
X-10835276Y22499058D01*
X-10892717Y22637734D01*
X-10922000Y22784948D01*
X-10922000Y22935052D01*
X-10892717Y23082266D01*
X-10835276Y23220942D01*
X-10751882Y23345750D01*
X-10645750Y23451882D01*
X-10520942Y23535276D01*
X-10382267Y23592717D01*
X-10333195Y23602478D01*
X-10235052Y23622000D01*
X-10084948Y23622000D01*
X-9986805Y23602478D01*
X-9986805Y23602478D01*
G37*
G36*
X10333195Y26142478D02*
X10382267Y26132717D01*
X10520942Y26075276D01*
X10645750Y25991882D01*
X10751882Y25885750D01*
X10835276Y25760942D01*
X10892717Y25622266D01*
X10922000Y25475052D01*
X10922000Y25324948D01*
X10892717Y25177734D01*
X10835276Y25039058D01*
X10751882Y24914250D01*
X10645750Y24808118D01*
X10645747Y24808116D01*
X10520942Y24724724D01*
X10382267Y24667283D01*
X10333195Y24657522D01*
X10235052Y24638000D01*
X10084948Y24638000D01*
X9986805Y24657522D01*
X9937733Y24667283D01*
X9799058Y24724724D01*
X9674253Y24808116D01*
X9674250Y24808118D01*
X9568118Y24914250D01*
X9484724Y25039058D01*
X9427283Y25177734D01*
X9398000Y25324948D01*
X9398000Y25475052D01*
X9427283Y25622266D01*
X9484724Y25760942D01*
X9568118Y25885750D01*
X9674250Y25991882D01*
X9799058Y26075276D01*
X9937733Y26132717D01*
X9986805Y26142478D01*
X10084948Y26162000D01*
X10235052Y26162000D01*
X10333195Y26142478D01*
X10333195Y26142478D01*
G37*
G36*
X-9986805Y26142478D02*
X-9937733Y26132717D01*
X-9799058Y26075276D01*
X-9674250Y25991882D01*
X-9568118Y25885750D01*
X-9484724Y25760942D01*
X-9427283Y25622266D01*
X-9398000Y25475052D01*
X-9398000Y25324948D01*
X-9427283Y25177734D01*
X-9484724Y25039058D01*
X-9568118Y24914250D01*
X-9674250Y24808118D01*
X-9674253Y24808116D01*
X-9799058Y24724724D01*
X-9937733Y24667283D01*
X-9986805Y24657522D01*
X-10084948Y24638000D01*
X-10235052Y24638000D01*
X-10333195Y24657522D01*
X-10382267Y24667283D01*
X-10520942Y24724724D01*
X-10645747Y24808116D01*
X-10645750Y24808118D01*
X-10751882Y24914250D01*
X-10835276Y25039058D01*
X-10892717Y25177734D01*
X-10922000Y25324948D01*
X-10922000Y25475052D01*
X-10892717Y25622266D01*
X-10835276Y25760942D01*
X-10751882Y25885750D01*
X-10645750Y25991882D01*
X-10520942Y26075276D01*
X-10382267Y26132717D01*
X-10333195Y26142478D01*
X-10235052Y26162000D01*
X-10084948Y26162000D01*
X-9986805Y26142478D01*
X-9986805Y26142478D01*
G37*
G36*
X-9986805Y28682478D02*
X-9937733Y28672717D01*
X-9799058Y28615276D01*
X-9674250Y28531882D01*
X-9568118Y28425750D01*
X-9484724Y28300942D01*
X-9427283Y28162266D01*
X-9398000Y28015052D01*
X-9398000Y27864948D01*
X-9427283Y27717734D01*
X-9484724Y27579058D01*
X-9568118Y27454250D01*
X-9674250Y27348118D01*
X-9674253Y27348116D01*
X-9799058Y27264724D01*
X-9937733Y27207283D01*
X-9986805Y27197522D01*
X-10084948Y27178000D01*
X-10235052Y27178000D01*
X-10333195Y27197522D01*
X-10382267Y27207283D01*
X-10520942Y27264724D01*
X-10645747Y27348116D01*
X-10645750Y27348118D01*
X-10751882Y27454250D01*
X-10835276Y27579058D01*
X-10892717Y27717734D01*
X-10922000Y27864948D01*
X-10922000Y28015052D01*
X-10892717Y28162266D01*
X-10835276Y28300942D01*
X-10751882Y28425750D01*
X-10645750Y28531882D01*
X-10520942Y28615276D01*
X-10382267Y28672717D01*
X-10333195Y28682478D01*
X-10235052Y28702000D01*
X-10084948Y28702000D01*
X-9986805Y28682478D01*
X-9986805Y28682478D01*
G37*
G36*
X10333195Y28682478D02*
X10382267Y28672717D01*
X10520942Y28615276D01*
X10645750Y28531882D01*
X10751882Y28425750D01*
X10835276Y28300942D01*
X10892717Y28162266D01*
X10922000Y28015052D01*
X10922000Y27864948D01*
X10892717Y27717734D01*
X10835276Y27579058D01*
X10751882Y27454250D01*
X10645750Y27348118D01*
X10645747Y27348116D01*
X10520942Y27264724D01*
X10382267Y27207283D01*
X10333195Y27197522D01*
X10235052Y27178000D01*
X10084948Y27178000D01*
X9986805Y27197522D01*
X9937733Y27207283D01*
X9799058Y27264724D01*
X9674253Y27348116D01*
X9674250Y27348118D01*
X9568118Y27454250D01*
X9484724Y27579058D01*
X9427283Y27717734D01*
X9398000Y27864948D01*
X9398000Y28015052D01*
X9427283Y28162266D01*
X9484724Y28300942D01*
X9568118Y28425750D01*
X9674250Y28531882D01*
X9799058Y28615276D01*
X9937733Y28672717D01*
X9986805Y28682478D01*
X10084948Y28702000D01*
X10235052Y28702000D01*
X10333195Y28682478D01*
X10333195Y28682478D01*
G37*
G36*
X-9986805Y31222478D02*
X-9937733Y31212717D01*
X-9799058Y31155276D01*
X-9674250Y31071882D01*
X-9568118Y30965750D01*
X-9484724Y30840942D01*
X-9427283Y30702266D01*
X-9398000Y30555052D01*
X-9398000Y30404948D01*
X-9427283Y30257734D01*
X-9484724Y30119058D01*
X-9568118Y29994250D01*
X-9674250Y29888118D01*
X-9674253Y29888116D01*
X-9799058Y29804724D01*
X-9937733Y29747283D01*
X-9986805Y29737522D01*
X-10084948Y29718000D01*
X-10235052Y29718000D01*
X-10333195Y29737522D01*
X-10382267Y29747283D01*
X-10520942Y29804724D01*
X-10645747Y29888116D01*
X-10645750Y29888118D01*
X-10751882Y29994250D01*
X-10835276Y30119058D01*
X-10892717Y30257734D01*
X-10922000Y30404948D01*
X-10922000Y30555052D01*
X-10892717Y30702266D01*
X-10835276Y30840942D01*
X-10751882Y30965750D01*
X-10645750Y31071882D01*
X-10520942Y31155276D01*
X-10382267Y31212717D01*
X-10333195Y31222478D01*
X-10235052Y31242000D01*
X-10084948Y31242000D01*
X-9986805Y31222478D01*
X-9986805Y31222478D01*
G37*
G36*
X10333195Y31222478D02*
X10382267Y31212717D01*
X10520942Y31155276D01*
X10645750Y31071882D01*
X10751882Y30965750D01*
X10835276Y30840942D01*
X10892717Y30702266D01*
X10922000Y30555052D01*
X10922000Y30404948D01*
X10892717Y30257734D01*
X10835276Y30119058D01*
X10751882Y29994250D01*
X10645750Y29888118D01*
X10645747Y29888116D01*
X10520942Y29804724D01*
X10382267Y29747283D01*
X10333195Y29737522D01*
X10235052Y29718000D01*
X10084948Y29718000D01*
X9986805Y29737522D01*
X9937733Y29747283D01*
X9799058Y29804724D01*
X9674253Y29888116D01*
X9674250Y29888118D01*
X9568118Y29994250D01*
X9484724Y30119058D01*
X9427283Y30257734D01*
X9398000Y30404948D01*
X9398000Y30555052D01*
X9427283Y30702266D01*
X9484724Y30840942D01*
X9568118Y30965750D01*
X9674250Y31071882D01*
X9799058Y31155276D01*
X9937733Y31212717D01*
X9986805Y31222478D01*
X10084948Y31242000D01*
X10235052Y31242000D01*
X10333195Y31222478D01*
X10333195Y31222478D01*
G37*
G36*
X-9986805Y33762478D02*
X-9937733Y33752717D01*
X-9799058Y33695276D01*
X-9674250Y33611882D01*
X-9568118Y33505750D01*
X-9484724Y33380942D01*
X-9427283Y33242266D01*
X-9398000Y33095052D01*
X-9398000Y32944948D01*
X-9427283Y32797734D01*
X-9484724Y32659058D01*
X-9568118Y32534250D01*
X-9674250Y32428118D01*
X-9674253Y32428116D01*
X-9799058Y32344724D01*
X-9937733Y32287283D01*
X-9986805Y32277522D01*
X-10084948Y32258000D01*
X-10235052Y32258000D01*
X-10333195Y32277522D01*
X-10382267Y32287283D01*
X-10520942Y32344724D01*
X-10645747Y32428116D01*
X-10645750Y32428118D01*
X-10751882Y32534250D01*
X-10835276Y32659058D01*
X-10892717Y32797734D01*
X-10922000Y32944948D01*
X-10922000Y33095052D01*
X-10892717Y33242266D01*
X-10835276Y33380942D01*
X-10751882Y33505750D01*
X-10645750Y33611882D01*
X-10520942Y33695276D01*
X-10382267Y33752717D01*
X-10333195Y33762478D01*
X-10235052Y33782000D01*
X-10084948Y33782000D01*
X-9986805Y33762478D01*
X-9986805Y33762478D01*
G37*
G36*
X-9986805Y36302478D02*
X-9937733Y36292717D01*
X-9799058Y36235276D01*
X-9674250Y36151882D01*
X-9568118Y36045750D01*
X-9484724Y35920942D01*
X-9427283Y35782266D01*
X-9398000Y35635052D01*
X-9398000Y35484948D01*
X-9427283Y35337734D01*
X-9484724Y35199058D01*
X-9568118Y35074250D01*
X-9674250Y34968118D01*
X-9674253Y34968116D01*
X-9799058Y34884724D01*
X-9937733Y34827283D01*
X-9986805Y34817522D01*
X-10084948Y34798000D01*
X-10235052Y34798000D01*
X-10333195Y34817522D01*
X-10382267Y34827283D01*
X-10520942Y34884724D01*
X-10645747Y34968116D01*
X-10645750Y34968118D01*
X-10751882Y35074250D01*
X-10835276Y35199058D01*
X-10892717Y35337734D01*
X-10922000Y35484948D01*
X-10922000Y35635052D01*
X-10892717Y35782266D01*
X-10835276Y35920942D01*
X-10751882Y36045750D01*
X-10645750Y36151882D01*
X-10520942Y36235276D01*
X-10382267Y36292717D01*
X-10333195Y36302478D01*
X-10235052Y36322000D01*
X-10084948Y36322000D01*
X-9986805Y36302478D01*
X-9986805Y36302478D01*
G37*
G36*
X-9986805Y38842478D02*
X-9937733Y38832717D01*
X-9799058Y38775276D01*
X-9674250Y38691882D01*
X-9568118Y38585750D01*
X-9484724Y38460942D01*
X-9427283Y38322266D01*
X-9398000Y38175052D01*
X-9398000Y38024948D01*
X-9427283Y37877734D01*
X-9484724Y37739058D01*
X-9568118Y37614250D01*
X-9674250Y37508118D01*
X-9674253Y37508116D01*
X-9799058Y37424724D01*
X-9937733Y37367283D01*
X-9986805Y37357522D01*
X-10084948Y37338000D01*
X-10235052Y37338000D01*
X-10333195Y37357522D01*
X-10382267Y37367283D01*
X-10520942Y37424724D01*
X-10645747Y37508116D01*
X-10645750Y37508118D01*
X-10751882Y37614250D01*
X-10835276Y37739058D01*
X-10892717Y37877734D01*
X-10922000Y38024948D01*
X-10922000Y38175052D01*
X-10892717Y38322266D01*
X-10835276Y38460942D01*
X-10751882Y38585750D01*
X-10645750Y38691882D01*
X-10520942Y38775276D01*
X-10382267Y38832717D01*
X-10333195Y38842478D01*
X-10235052Y38862000D01*
X-10084948Y38862000D01*
X-9986805Y38842478D01*
X-9986805Y38842478D01*
G37*
G36*
X-9986805Y41382478D02*
X-9937733Y41372717D01*
X-9799058Y41315276D01*
X-9674250Y41231882D01*
X-9568118Y41125750D01*
X-9484724Y41000942D01*
X-9427283Y40862266D01*
X-9398000Y40715052D01*
X-9398000Y40564948D01*
X-9427283Y40417734D01*
X-9484724Y40279058D01*
X-9568118Y40154250D01*
X-9674250Y40048118D01*
X-9674253Y40048116D01*
X-9799058Y39964724D01*
X-9937733Y39907283D01*
X-9986805Y39897522D01*
X-10084948Y39878000D01*
X-10235052Y39878000D01*
X-10333195Y39897522D01*
X-10382267Y39907283D01*
X-10520942Y39964724D01*
X-10645747Y40048116D01*
X-10645750Y40048118D01*
X-10751882Y40154250D01*
X-10835276Y40279058D01*
X-10892717Y40417734D01*
X-10922000Y40564948D01*
X-10922000Y40715052D01*
X-10892717Y40862266D01*
X-10835276Y41000942D01*
X-10751882Y41125750D01*
X-10645750Y41231882D01*
X-10520942Y41315276D01*
X-10382267Y41372717D01*
X-10333195Y41382478D01*
X-10235052Y41402000D01*
X-10084948Y41402000D01*
X-9986805Y41382478D01*
X-9986805Y41382478D01*
G37*
M02*
