G04 #@! TF.GenerationSoftware,KiCad,Pcbnew,(5.0.2)-1*
G04 #@! TF.CreationDate,2019-06-26T21:02:57-07:00*
G04 #@! TF.ProjectId,D52M Feather Wing,4435324d-2046-4656-9174-686572205769,rev?*
G04 #@! TF.SameCoordinates,Original*
G04 #@! TF.FileFunction,Soldermask,Bot*
G04 #@! TF.FilePolarity,Negative*
%FSLAX46Y46*%
G04 Gerber Fmt 4.6, Leading zero omitted, Abs format (unit mm)*
G04 Created by KiCad (PCBNEW (5.0.2)-1) date 2019-06-26 9:02:57 PM*
%MOMM*%
%LPD*%
G01*
G04 APERTURE LIST*
%ADD10C,0.100000*%
G04 APERTURE END LIST*
D10*
G36*
X10333195Y3282478D02*
X10382267Y3272717D01*
X10520942Y3215276D01*
X10645750Y3131882D01*
X10751882Y3025750D01*
X10835276Y2900942D01*
X10892717Y2762266D01*
X10922000Y2615052D01*
X10922000Y2464948D01*
X10892717Y2317734D01*
X10835276Y2179058D01*
X10751882Y2054250D01*
X10645750Y1948118D01*
X10645747Y1948116D01*
X10520942Y1864724D01*
X10382267Y1807283D01*
X10333195Y1797522D01*
X10235052Y1778000D01*
X10084948Y1778000D01*
X9986805Y1797522D01*
X9937733Y1807283D01*
X9799058Y1864724D01*
X9674253Y1948116D01*
X9674250Y1948118D01*
X9568118Y2054250D01*
X9484724Y2179058D01*
X9427283Y2317734D01*
X9398000Y2464948D01*
X9398000Y2615052D01*
X9427283Y2762266D01*
X9484724Y2900942D01*
X9568118Y3025750D01*
X9674250Y3131882D01*
X9799058Y3215276D01*
X9937733Y3272717D01*
X9986805Y3282478D01*
X10084948Y3302000D01*
X10235052Y3302000D01*
X10333195Y3282478D01*
X10333195Y3282478D01*
G37*
G36*
X-9986805Y3282478D02*
X-9937733Y3272717D01*
X-9799058Y3215276D01*
X-9674250Y3131882D01*
X-9568118Y3025750D01*
X-9484724Y2900942D01*
X-9427283Y2762266D01*
X-9398000Y2615052D01*
X-9398000Y2464948D01*
X-9427283Y2317734D01*
X-9484724Y2179058D01*
X-9568118Y2054250D01*
X-9674250Y1948118D01*
X-9674253Y1948116D01*
X-9799058Y1864724D01*
X-9937733Y1807283D01*
X-9986805Y1797522D01*
X-10084948Y1778000D01*
X-10235052Y1778000D01*
X-10333195Y1797522D01*
X-10382267Y1807283D01*
X-10520942Y1864724D01*
X-10645747Y1948116D01*
X-10645750Y1948118D01*
X-10751882Y2054250D01*
X-10835276Y2179058D01*
X-10892717Y2317734D01*
X-10922000Y2464948D01*
X-10922000Y2615052D01*
X-10892717Y2762266D01*
X-10835276Y2900942D01*
X-10751882Y3025750D01*
X-10645750Y3131882D01*
X-10520942Y3215276D01*
X-10382267Y3272717D01*
X-10333195Y3282478D01*
X-10235052Y3302000D01*
X-10084948Y3302000D01*
X-9986805Y3282478D01*
X-9986805Y3282478D01*
G37*
G36*
X-9986805Y5822478D02*
X-9937733Y5812717D01*
X-9799058Y5755276D01*
X-9674250Y5671882D01*
X-9568118Y5565750D01*
X-9484724Y5440942D01*
X-9427283Y5302266D01*
X-9398000Y5155052D01*
X-9398000Y5004948D01*
X-9427283Y4857734D01*
X-9484724Y4719058D01*
X-9568118Y4594250D01*
X-9674250Y4488118D01*
X-9674253Y4488116D01*
X-9799058Y4404724D01*
X-9937733Y4347283D01*
X-9986805Y4337522D01*
X-10084948Y4318000D01*
X-10235052Y4318000D01*
X-10333195Y4337522D01*
X-10382267Y4347283D01*
X-10520942Y4404724D01*
X-10645747Y4488116D01*
X-10645750Y4488118D01*
X-10751882Y4594250D01*
X-10835276Y4719058D01*
X-10892717Y4857734D01*
X-10922000Y5004948D01*
X-10922000Y5155052D01*
X-10892717Y5302266D01*
X-10835276Y5440942D01*
X-10751882Y5565750D01*
X-10645750Y5671882D01*
X-10520942Y5755276D01*
X-10382267Y5812717D01*
X-10333195Y5822478D01*
X-10235052Y5842000D01*
X-10084948Y5842000D01*
X-9986805Y5822478D01*
X-9986805Y5822478D01*
G37*
G36*
X10333195Y5822478D02*
X10382267Y5812717D01*
X10520942Y5755276D01*
X10645750Y5671882D01*
X10751882Y5565750D01*
X10835276Y5440942D01*
X10892717Y5302266D01*
X10922000Y5155052D01*
X10922000Y5004948D01*
X10892717Y4857734D01*
X10835276Y4719058D01*
X10751882Y4594250D01*
X10645750Y4488118D01*
X10645747Y4488116D01*
X10520942Y4404724D01*
X10382267Y4347283D01*
X10333195Y4337522D01*
X10235052Y4318000D01*
X10084948Y4318000D01*
X9986805Y4337522D01*
X9937733Y4347283D01*
X9799058Y4404724D01*
X9674253Y4488116D01*
X9674250Y4488118D01*
X9568118Y4594250D01*
X9484724Y4719058D01*
X9427283Y4857734D01*
X9398000Y5004948D01*
X9398000Y5155052D01*
X9427283Y5302266D01*
X9484724Y5440942D01*
X9568118Y5565750D01*
X9674250Y5671882D01*
X9799058Y5755276D01*
X9937733Y5812717D01*
X9986805Y5822478D01*
X10084948Y5842000D01*
X10235052Y5842000D01*
X10333195Y5822478D01*
X10333195Y5822478D01*
G37*
G36*
X10333195Y8362478D02*
X10382267Y8352717D01*
X10520942Y8295276D01*
X10645750Y8211882D01*
X10751882Y8105750D01*
X10835276Y7980942D01*
X10892717Y7842266D01*
X10922000Y7695052D01*
X10922000Y7544948D01*
X10892717Y7397734D01*
X10835276Y7259058D01*
X10751882Y7134250D01*
X10645750Y7028118D01*
X10645747Y7028116D01*
X10520942Y6944724D01*
X10382267Y6887283D01*
X10333195Y6877522D01*
X10235052Y6858000D01*
X10084948Y6858000D01*
X9986805Y6877522D01*
X9937733Y6887283D01*
X9799058Y6944724D01*
X9674253Y7028116D01*
X9674250Y7028118D01*
X9568118Y7134250D01*
X9484724Y7259058D01*
X9427283Y7397734D01*
X9398000Y7544948D01*
X9398000Y7695052D01*
X9427283Y7842266D01*
X9484724Y7980942D01*
X9568118Y8105750D01*
X9674250Y8211882D01*
X9799058Y8295276D01*
X9937733Y8352717D01*
X9986805Y8362478D01*
X10084948Y8382000D01*
X10235052Y8382000D01*
X10333195Y8362478D01*
X10333195Y8362478D01*
G37*
G36*
X-9986805Y8362478D02*
X-9937733Y8352717D01*
X-9799058Y8295276D01*
X-9674250Y8211882D01*
X-9568118Y8105750D01*
X-9484724Y7980942D01*
X-9427283Y7842266D01*
X-9398000Y7695052D01*
X-9398000Y7544948D01*
X-9427283Y7397734D01*
X-9484724Y7259058D01*
X-9568118Y7134250D01*
X-9674250Y7028118D01*
X-9674253Y7028116D01*
X-9799058Y6944724D01*
X-9937733Y6887283D01*
X-9986805Y6877522D01*
X-10084948Y6858000D01*
X-10235052Y6858000D01*
X-10333195Y6877522D01*
X-10382267Y6887283D01*
X-10520942Y6944724D01*
X-10645747Y7028116D01*
X-10645750Y7028118D01*
X-10751882Y7134250D01*
X-10835276Y7259058D01*
X-10892717Y7397734D01*
X-10922000Y7544948D01*
X-10922000Y7695052D01*
X-10892717Y7842266D01*
X-10835276Y7980942D01*
X-10751882Y8105750D01*
X-10645750Y8211882D01*
X-10520942Y8295276D01*
X-10382267Y8352717D01*
X-10333195Y8362478D01*
X-10235052Y8382000D01*
X-10084948Y8382000D01*
X-9986805Y8362478D01*
X-9986805Y8362478D01*
G37*
G36*
X10333195Y10902478D02*
X10382267Y10892717D01*
X10520942Y10835276D01*
X10645750Y10751882D01*
X10751882Y10645750D01*
X10835276Y10520942D01*
X10892717Y10382266D01*
X10922000Y10235052D01*
X10922000Y10084948D01*
X10892717Y9937734D01*
X10835276Y9799058D01*
X10751882Y9674250D01*
X10645750Y9568118D01*
X10645747Y9568116D01*
X10520942Y9484724D01*
X10382267Y9427283D01*
X10333195Y9417522D01*
X10235052Y9398000D01*
X10084948Y9398000D01*
X9986805Y9417522D01*
X9937733Y9427283D01*
X9799058Y9484724D01*
X9674253Y9568116D01*
X9674250Y9568118D01*
X9568118Y9674250D01*
X9484724Y9799058D01*
X9427283Y9937734D01*
X9398000Y10084948D01*
X9398000Y10235052D01*
X9427283Y10382266D01*
X9484724Y10520942D01*
X9568118Y10645750D01*
X9674250Y10751882D01*
X9799058Y10835276D01*
X9937733Y10892717D01*
X9986805Y10902478D01*
X10084948Y10922000D01*
X10235052Y10922000D01*
X10333195Y10902478D01*
X10333195Y10902478D01*
G37*
G36*
X-9986805Y10902478D02*
X-9937733Y10892717D01*
X-9799058Y10835276D01*
X-9674250Y10751882D01*
X-9568118Y10645750D01*
X-9484724Y10520942D01*
X-9427283Y10382266D01*
X-9398000Y10235052D01*
X-9398000Y10084948D01*
X-9427283Y9937734D01*
X-9484724Y9799058D01*
X-9568118Y9674250D01*
X-9674250Y9568118D01*
X-9674253Y9568116D01*
X-9799058Y9484724D01*
X-9937733Y9427283D01*
X-9986805Y9417522D01*
X-10084948Y9398000D01*
X-10235052Y9398000D01*
X-10333195Y9417522D01*
X-10382267Y9427283D01*
X-10520942Y9484724D01*
X-10645747Y9568116D01*
X-10645750Y9568118D01*
X-10751882Y9674250D01*
X-10835276Y9799058D01*
X-10892717Y9937734D01*
X-10922000Y10084948D01*
X-10922000Y10235052D01*
X-10892717Y10382266D01*
X-10835276Y10520942D01*
X-10751882Y10645750D01*
X-10645750Y10751882D01*
X-10520942Y10835276D01*
X-10382267Y10892717D01*
X-10333195Y10902478D01*
X-10235052Y10922000D01*
X-10084948Y10922000D01*
X-9986805Y10902478D01*
X-9986805Y10902478D01*
G37*
G36*
X-9986805Y13442478D02*
X-9937733Y13432717D01*
X-9799058Y13375276D01*
X-9674250Y13291882D01*
X-9568118Y13185750D01*
X-9484724Y13060942D01*
X-9427283Y12922266D01*
X-9398000Y12775052D01*
X-9398000Y12624948D01*
X-9427283Y12477734D01*
X-9484724Y12339058D01*
X-9568118Y12214250D01*
X-9674250Y12108118D01*
X-9674253Y12108116D01*
X-9799058Y12024724D01*
X-9937733Y11967283D01*
X-9986805Y11957522D01*
X-10084948Y11938000D01*
X-10235052Y11938000D01*
X-10333195Y11957522D01*
X-10382267Y11967283D01*
X-10520942Y12024724D01*
X-10645747Y12108116D01*
X-10645750Y12108118D01*
X-10751882Y12214250D01*
X-10835276Y12339058D01*
X-10892717Y12477734D01*
X-10922000Y12624948D01*
X-10922000Y12775052D01*
X-10892717Y12922266D01*
X-10835276Y13060942D01*
X-10751882Y13185750D01*
X-10645750Y13291882D01*
X-10520942Y13375276D01*
X-10382267Y13432717D01*
X-10333195Y13442478D01*
X-10235052Y13462000D01*
X-10084948Y13462000D01*
X-9986805Y13442478D01*
X-9986805Y13442478D01*
G37*
G36*
X10333195Y13442478D02*
X10382267Y13432717D01*
X10520942Y13375276D01*
X10645750Y13291882D01*
X10751882Y13185750D01*
X10835276Y13060942D01*
X10892717Y12922266D01*
X10922000Y12775052D01*
X10922000Y12624948D01*
X10892717Y12477734D01*
X10835276Y12339058D01*
X10751882Y12214250D01*
X10645750Y12108118D01*
X10645747Y12108116D01*
X10520942Y12024724D01*
X10382267Y11967283D01*
X10333195Y11957522D01*
X10235052Y11938000D01*
X10084948Y11938000D01*
X9986805Y11957522D01*
X9937733Y11967283D01*
X9799058Y12024724D01*
X9674253Y12108116D01*
X9674250Y12108118D01*
X9568118Y12214250D01*
X9484724Y12339058D01*
X9427283Y12477734D01*
X9398000Y12624948D01*
X9398000Y12775052D01*
X9427283Y12922266D01*
X9484724Y13060942D01*
X9568118Y13185750D01*
X9674250Y13291882D01*
X9799058Y13375276D01*
X9937733Y13432717D01*
X9986805Y13442478D01*
X10084948Y13462000D01*
X10235052Y13462000D01*
X10333195Y13442478D01*
X10333195Y13442478D01*
G37*
G36*
X-9986805Y15982478D02*
X-9937733Y15972717D01*
X-9799058Y15915276D01*
X-9674250Y15831882D01*
X-9568118Y15725750D01*
X-9484724Y15600942D01*
X-9427283Y15462266D01*
X-9398000Y15315052D01*
X-9398000Y15164948D01*
X-9427283Y15017734D01*
X-9484724Y14879058D01*
X-9568118Y14754250D01*
X-9674250Y14648118D01*
X-9674253Y14648116D01*
X-9799058Y14564724D01*
X-9937733Y14507283D01*
X-9986805Y14497522D01*
X-10084948Y14478000D01*
X-10235052Y14478000D01*
X-10333195Y14497522D01*
X-10382267Y14507283D01*
X-10520942Y14564724D01*
X-10645747Y14648116D01*
X-10645750Y14648118D01*
X-10751882Y14754250D01*
X-10835276Y14879058D01*
X-10892717Y15017734D01*
X-10922000Y15164948D01*
X-10922000Y15315052D01*
X-10892717Y15462266D01*
X-10835276Y15600942D01*
X-10751882Y15725750D01*
X-10645750Y15831882D01*
X-10520942Y15915276D01*
X-10382267Y15972717D01*
X-10333195Y15982478D01*
X-10235052Y16002000D01*
X-10084948Y16002000D01*
X-9986805Y15982478D01*
X-9986805Y15982478D01*
G37*
G36*
X10333195Y15982478D02*
X10382267Y15972717D01*
X10520942Y15915276D01*
X10645750Y15831882D01*
X10751882Y15725750D01*
X10835276Y15600942D01*
X10892717Y15462266D01*
X10922000Y15315052D01*
X10922000Y15164948D01*
X10892717Y15017734D01*
X10835276Y14879058D01*
X10751882Y14754250D01*
X10645750Y14648118D01*
X10645747Y14648116D01*
X10520942Y14564724D01*
X10382267Y14507283D01*
X10333195Y14497522D01*
X10235052Y14478000D01*
X10084948Y14478000D01*
X9986805Y14497522D01*
X9937733Y14507283D01*
X9799058Y14564724D01*
X9674253Y14648116D01*
X9674250Y14648118D01*
X9568118Y14754250D01*
X9484724Y14879058D01*
X9427283Y15017734D01*
X9398000Y15164948D01*
X9398000Y15315052D01*
X9427283Y15462266D01*
X9484724Y15600942D01*
X9568118Y15725750D01*
X9674250Y15831882D01*
X9799058Y15915276D01*
X9937733Y15972717D01*
X9986805Y15982478D01*
X10084948Y16002000D01*
X10235052Y16002000D01*
X10333195Y15982478D01*
X10333195Y15982478D01*
G37*
G36*
X10333195Y18522478D02*
X10382267Y18512717D01*
X10520942Y18455276D01*
X10645750Y18371882D01*
X10751882Y18265750D01*
X10835276Y18140942D01*
X10892717Y18002266D01*
X10922000Y17855052D01*
X10922000Y17704948D01*
X10892717Y17557734D01*
X10835276Y17419058D01*
X10751882Y17294250D01*
X10645750Y17188118D01*
X10645747Y17188116D01*
X10520942Y17104724D01*
X10382267Y17047283D01*
X10333195Y17037522D01*
X10235052Y17018000D01*
X10084948Y17018000D01*
X9986805Y17037522D01*
X9937733Y17047283D01*
X9799058Y17104724D01*
X9674253Y17188116D01*
X9674250Y17188118D01*
X9568118Y17294250D01*
X9484724Y17419058D01*
X9427283Y17557734D01*
X9398000Y17704948D01*
X9398000Y17855052D01*
X9427283Y18002266D01*
X9484724Y18140942D01*
X9568118Y18265750D01*
X9674250Y18371882D01*
X9799058Y18455276D01*
X9937733Y18512717D01*
X9986805Y18522478D01*
X10084948Y18542000D01*
X10235052Y18542000D01*
X10333195Y18522478D01*
X10333195Y18522478D01*
G37*
G36*
X-9986805Y18522478D02*
X-9937733Y18512717D01*
X-9799058Y18455276D01*
X-9674250Y18371882D01*
X-9568118Y18265750D01*
X-9484724Y18140942D01*
X-9427283Y18002266D01*
X-9398000Y17855052D01*
X-9398000Y17704948D01*
X-9427283Y17557734D01*
X-9484724Y17419058D01*
X-9568118Y17294250D01*
X-9674250Y17188118D01*
X-9674253Y17188116D01*
X-9799058Y17104724D01*
X-9937733Y17047283D01*
X-9986805Y17037522D01*
X-10084948Y17018000D01*
X-10235052Y17018000D01*
X-10333195Y17037522D01*
X-10382267Y17047283D01*
X-10520942Y17104724D01*
X-10645747Y17188116D01*
X-10645750Y17188118D01*
X-10751882Y17294250D01*
X-10835276Y17419058D01*
X-10892717Y17557734D01*
X-10922000Y17704948D01*
X-10922000Y17855052D01*
X-10892717Y18002266D01*
X-10835276Y18140942D01*
X-10751882Y18265750D01*
X-10645750Y18371882D01*
X-10520942Y18455276D01*
X-10382267Y18512717D01*
X-10333195Y18522478D01*
X-10235052Y18542000D01*
X-10084948Y18542000D01*
X-9986805Y18522478D01*
X-9986805Y18522478D01*
G37*
G36*
X-9986805Y21062478D02*
X-9937733Y21052717D01*
X-9799058Y20995276D01*
X-9674250Y20911882D01*
X-9568118Y20805750D01*
X-9484724Y20680942D01*
X-9427283Y20542266D01*
X-9398000Y20395052D01*
X-9398000Y20244948D01*
X-9427283Y20097734D01*
X-9484724Y19959058D01*
X-9568118Y19834250D01*
X-9674250Y19728118D01*
X-9674253Y19728116D01*
X-9799058Y19644724D01*
X-9937733Y19587283D01*
X-9986805Y19577522D01*
X-10084948Y19558000D01*
X-10235052Y19558000D01*
X-10333195Y19577522D01*
X-10382267Y19587283D01*
X-10520942Y19644724D01*
X-10645747Y19728116D01*
X-10645750Y19728118D01*
X-10751882Y19834250D01*
X-10835276Y19959058D01*
X-10892717Y20097734D01*
X-10922000Y20244948D01*
X-10922000Y20395052D01*
X-10892717Y20542266D01*
X-10835276Y20680942D01*
X-10751882Y20805750D01*
X-10645750Y20911882D01*
X-10520942Y20995276D01*
X-10382267Y21052717D01*
X-10333195Y21062478D01*
X-10235052Y21082000D01*
X-10084948Y21082000D01*
X-9986805Y21062478D01*
X-9986805Y21062478D01*
G37*
G36*
X10333195Y21062478D02*
X10382267Y21052717D01*
X10520942Y20995276D01*
X10645750Y20911882D01*
X10751882Y20805750D01*
X10835276Y20680942D01*
X10892717Y20542266D01*
X10922000Y20395052D01*
X10922000Y20244948D01*
X10892717Y20097734D01*
X10835276Y19959058D01*
X10751882Y19834250D01*
X10645750Y19728118D01*
X10645747Y19728116D01*
X10520942Y19644724D01*
X10382267Y19587283D01*
X10333195Y19577522D01*
X10235052Y19558000D01*
X10084948Y19558000D01*
X9986805Y19577522D01*
X9937733Y19587283D01*
X9799058Y19644724D01*
X9674253Y19728116D01*
X9674250Y19728118D01*
X9568118Y19834250D01*
X9484724Y19959058D01*
X9427283Y20097734D01*
X9398000Y20244948D01*
X9398000Y20395052D01*
X9427283Y20542266D01*
X9484724Y20680942D01*
X9568118Y20805750D01*
X9674250Y20911882D01*
X9799058Y20995276D01*
X9937733Y21052717D01*
X9986805Y21062478D01*
X10084948Y21082000D01*
X10235052Y21082000D01*
X10333195Y21062478D01*
X10333195Y21062478D01*
G37*
G36*
X10333195Y23602478D02*
X10382267Y23592717D01*
X10520942Y23535276D01*
X10645750Y23451882D01*
X10751882Y23345750D01*
X10835276Y23220942D01*
X10892717Y23082266D01*
X10922000Y22935052D01*
X10922000Y22784948D01*
X10892717Y22637734D01*
X10835276Y22499058D01*
X10751882Y22374250D01*
X10645750Y22268118D01*
X10645747Y22268116D01*
X10520942Y22184724D01*
X10382267Y22127283D01*
X10333195Y22117522D01*
X10235052Y22098000D01*
X10084948Y22098000D01*
X9986805Y22117522D01*
X9937733Y22127283D01*
X9799058Y22184724D01*
X9674253Y22268116D01*
X9674250Y22268118D01*
X9568118Y22374250D01*
X9484724Y22499058D01*
X9427283Y22637734D01*
X9398000Y22784948D01*
X9398000Y22935052D01*
X9427283Y23082266D01*
X9484724Y23220942D01*
X9568118Y23345750D01*
X9674250Y23451882D01*
X9799058Y23535276D01*
X9937733Y23592717D01*
X9986805Y23602478D01*
X10084948Y23622000D01*
X10235052Y23622000D01*
X10333195Y23602478D01*
X10333195Y23602478D01*
G37*
G36*
X-9986805Y23602478D02*
X-9937733Y23592717D01*
X-9799058Y23535276D01*
X-9674250Y23451882D01*
X-9568118Y23345750D01*
X-9484724Y23220942D01*
X-9427283Y23082266D01*
X-9398000Y22935052D01*
X-9398000Y22784948D01*
X-9427283Y22637734D01*
X-9484724Y22499058D01*
X-9568118Y22374250D01*
X-9674250Y22268118D01*
X-9674253Y22268116D01*
X-9799058Y22184724D01*
X-9937733Y22127283D01*
X-9986805Y22117522D01*
X-10084948Y22098000D01*
X-10235052Y22098000D01*
X-10333195Y22117522D01*
X-10382267Y22127283D01*
X-10520942Y22184724D01*
X-10645747Y22268116D01*
X-10645750Y22268118D01*
X-10751882Y22374250D01*
X-10835276Y22499058D01*
X-10892717Y22637734D01*
X-10922000Y22784948D01*
X-10922000Y22935052D01*
X-10892717Y23082266D01*
X-10835276Y23220942D01*
X-10751882Y23345750D01*
X-10645750Y23451882D01*
X-10520942Y23535276D01*
X-10382267Y23592717D01*
X-10333195Y23602478D01*
X-10235052Y23622000D01*
X-10084948Y23622000D01*
X-9986805Y23602478D01*
X-9986805Y23602478D01*
G37*
G36*
X-9986805Y26142478D02*
X-9937733Y26132717D01*
X-9799058Y26075276D01*
X-9674250Y25991882D01*
X-9568118Y25885750D01*
X-9484724Y25760942D01*
X-9427283Y25622266D01*
X-9398000Y25475052D01*
X-9398000Y25324948D01*
X-9427283Y25177734D01*
X-9484724Y25039058D01*
X-9568118Y24914250D01*
X-9674250Y24808118D01*
X-9674253Y24808116D01*
X-9799058Y24724724D01*
X-9937733Y24667283D01*
X-9986805Y24657522D01*
X-10084948Y24638000D01*
X-10235052Y24638000D01*
X-10333195Y24657522D01*
X-10382267Y24667283D01*
X-10520942Y24724724D01*
X-10645747Y24808116D01*
X-10645750Y24808118D01*
X-10751882Y24914250D01*
X-10835276Y25039058D01*
X-10892717Y25177734D01*
X-10922000Y25324948D01*
X-10922000Y25475052D01*
X-10892717Y25622266D01*
X-10835276Y25760942D01*
X-10751882Y25885750D01*
X-10645750Y25991882D01*
X-10520942Y26075276D01*
X-10382267Y26132717D01*
X-10333195Y26142478D01*
X-10235052Y26162000D01*
X-10084948Y26162000D01*
X-9986805Y26142478D01*
X-9986805Y26142478D01*
G37*
G36*
X10333195Y26142478D02*
X10382267Y26132717D01*
X10520942Y26075276D01*
X10645750Y25991882D01*
X10751882Y25885750D01*
X10835276Y25760942D01*
X10892717Y25622266D01*
X10922000Y25475052D01*
X10922000Y25324948D01*
X10892717Y25177734D01*
X10835276Y25039058D01*
X10751882Y24914250D01*
X10645750Y24808118D01*
X10645747Y24808116D01*
X10520942Y24724724D01*
X10382267Y24667283D01*
X10333195Y24657522D01*
X10235052Y24638000D01*
X10084948Y24638000D01*
X9986805Y24657522D01*
X9937733Y24667283D01*
X9799058Y24724724D01*
X9674253Y24808116D01*
X9674250Y24808118D01*
X9568118Y24914250D01*
X9484724Y25039058D01*
X9427283Y25177734D01*
X9398000Y25324948D01*
X9398000Y25475052D01*
X9427283Y25622266D01*
X9484724Y25760942D01*
X9568118Y25885750D01*
X9674250Y25991882D01*
X9799058Y26075276D01*
X9937733Y26132717D01*
X9986805Y26142478D01*
X10084948Y26162000D01*
X10235052Y26162000D01*
X10333195Y26142478D01*
X10333195Y26142478D01*
G37*
G36*
X-9986805Y28682478D02*
X-9937733Y28672717D01*
X-9799058Y28615276D01*
X-9674250Y28531882D01*
X-9568118Y28425750D01*
X-9484724Y28300942D01*
X-9427283Y28162266D01*
X-9398000Y28015052D01*
X-9398000Y27864948D01*
X-9427283Y27717734D01*
X-9484724Y27579058D01*
X-9568118Y27454250D01*
X-9674250Y27348118D01*
X-9674253Y27348116D01*
X-9799058Y27264724D01*
X-9937733Y27207283D01*
X-9986805Y27197522D01*
X-10084948Y27178000D01*
X-10235052Y27178000D01*
X-10333195Y27197522D01*
X-10382267Y27207283D01*
X-10520942Y27264724D01*
X-10645747Y27348116D01*
X-10645750Y27348118D01*
X-10751882Y27454250D01*
X-10835276Y27579058D01*
X-10892717Y27717734D01*
X-10922000Y27864948D01*
X-10922000Y28015052D01*
X-10892717Y28162266D01*
X-10835276Y28300942D01*
X-10751882Y28425750D01*
X-10645750Y28531882D01*
X-10520942Y28615276D01*
X-10382267Y28672717D01*
X-10333195Y28682478D01*
X-10235052Y28702000D01*
X-10084948Y28702000D01*
X-9986805Y28682478D01*
X-9986805Y28682478D01*
G37*
G36*
X10333195Y28682478D02*
X10382267Y28672717D01*
X10520942Y28615276D01*
X10645750Y28531882D01*
X10751882Y28425750D01*
X10835276Y28300942D01*
X10892717Y28162266D01*
X10922000Y28015052D01*
X10922000Y27864948D01*
X10892717Y27717734D01*
X10835276Y27579058D01*
X10751882Y27454250D01*
X10645750Y27348118D01*
X10645747Y27348116D01*
X10520942Y27264724D01*
X10382267Y27207283D01*
X10333195Y27197522D01*
X10235052Y27178000D01*
X10084948Y27178000D01*
X9986805Y27197522D01*
X9937733Y27207283D01*
X9799058Y27264724D01*
X9674253Y27348116D01*
X9674250Y27348118D01*
X9568118Y27454250D01*
X9484724Y27579058D01*
X9427283Y27717734D01*
X9398000Y27864948D01*
X9398000Y28015052D01*
X9427283Y28162266D01*
X9484724Y28300942D01*
X9568118Y28425750D01*
X9674250Y28531882D01*
X9799058Y28615276D01*
X9937733Y28672717D01*
X9986805Y28682478D01*
X10084948Y28702000D01*
X10235052Y28702000D01*
X10333195Y28682478D01*
X10333195Y28682478D01*
G37*
G36*
X10333195Y31222478D02*
X10382267Y31212717D01*
X10520942Y31155276D01*
X10645750Y31071882D01*
X10751882Y30965750D01*
X10835276Y30840942D01*
X10892717Y30702266D01*
X10922000Y30555052D01*
X10922000Y30404948D01*
X10892717Y30257734D01*
X10835276Y30119058D01*
X10751882Y29994250D01*
X10645750Y29888118D01*
X10645747Y29888116D01*
X10520942Y29804724D01*
X10382267Y29747283D01*
X10333195Y29737522D01*
X10235052Y29718000D01*
X10084948Y29718000D01*
X9986805Y29737522D01*
X9937733Y29747283D01*
X9799058Y29804724D01*
X9674253Y29888116D01*
X9674250Y29888118D01*
X9568118Y29994250D01*
X9484724Y30119058D01*
X9427283Y30257734D01*
X9398000Y30404948D01*
X9398000Y30555052D01*
X9427283Y30702266D01*
X9484724Y30840942D01*
X9568118Y30965750D01*
X9674250Y31071882D01*
X9799058Y31155276D01*
X9937733Y31212717D01*
X9986805Y31222478D01*
X10084948Y31242000D01*
X10235052Y31242000D01*
X10333195Y31222478D01*
X10333195Y31222478D01*
G37*
G36*
X-9986805Y31222478D02*
X-9937733Y31212717D01*
X-9799058Y31155276D01*
X-9674250Y31071882D01*
X-9568118Y30965750D01*
X-9484724Y30840942D01*
X-9427283Y30702266D01*
X-9398000Y30555052D01*
X-9398000Y30404948D01*
X-9427283Y30257734D01*
X-9484724Y30119058D01*
X-9568118Y29994250D01*
X-9674250Y29888118D01*
X-9674253Y29888116D01*
X-9799058Y29804724D01*
X-9937733Y29747283D01*
X-9986805Y29737522D01*
X-10084948Y29718000D01*
X-10235052Y29718000D01*
X-10333195Y29737522D01*
X-10382267Y29747283D01*
X-10520942Y29804724D01*
X-10645747Y29888116D01*
X-10645750Y29888118D01*
X-10751882Y29994250D01*
X-10835276Y30119058D01*
X-10892717Y30257734D01*
X-10922000Y30404948D01*
X-10922000Y30555052D01*
X-10892717Y30702266D01*
X-10835276Y30840942D01*
X-10751882Y30965750D01*
X-10645750Y31071882D01*
X-10520942Y31155276D01*
X-10382267Y31212717D01*
X-10333195Y31222478D01*
X-10235052Y31242000D01*
X-10084948Y31242000D01*
X-9986805Y31222478D01*
X-9986805Y31222478D01*
G37*
G36*
X-9986805Y33762478D02*
X-9937733Y33752717D01*
X-9799058Y33695276D01*
X-9674250Y33611882D01*
X-9568118Y33505750D01*
X-9484724Y33380942D01*
X-9427283Y33242266D01*
X-9398000Y33095052D01*
X-9398000Y32944948D01*
X-9427283Y32797734D01*
X-9484724Y32659058D01*
X-9568118Y32534250D01*
X-9674250Y32428118D01*
X-9674253Y32428116D01*
X-9799058Y32344724D01*
X-9937733Y32287283D01*
X-9986805Y32277522D01*
X-10084948Y32258000D01*
X-10235052Y32258000D01*
X-10333195Y32277522D01*
X-10382267Y32287283D01*
X-10520942Y32344724D01*
X-10645747Y32428116D01*
X-10645750Y32428118D01*
X-10751882Y32534250D01*
X-10835276Y32659058D01*
X-10892717Y32797734D01*
X-10922000Y32944948D01*
X-10922000Y33095052D01*
X-10892717Y33242266D01*
X-10835276Y33380942D01*
X-10751882Y33505750D01*
X-10645750Y33611882D01*
X-10520942Y33695276D01*
X-10382267Y33752717D01*
X-10333195Y33762478D01*
X-10235052Y33782000D01*
X-10084948Y33782000D01*
X-9986805Y33762478D01*
X-9986805Y33762478D01*
G37*
G36*
X-9986805Y36302478D02*
X-9937733Y36292717D01*
X-9799058Y36235276D01*
X-9674250Y36151882D01*
X-9568118Y36045750D01*
X-9484724Y35920942D01*
X-9427283Y35782266D01*
X-9398000Y35635052D01*
X-9398000Y35484948D01*
X-9427283Y35337734D01*
X-9484724Y35199058D01*
X-9568118Y35074250D01*
X-9674250Y34968118D01*
X-9674253Y34968116D01*
X-9799058Y34884724D01*
X-9937733Y34827283D01*
X-9986805Y34817522D01*
X-10084948Y34798000D01*
X-10235052Y34798000D01*
X-10333195Y34817522D01*
X-10382267Y34827283D01*
X-10520942Y34884724D01*
X-10645747Y34968116D01*
X-10645750Y34968118D01*
X-10751882Y35074250D01*
X-10835276Y35199058D01*
X-10892717Y35337734D01*
X-10922000Y35484948D01*
X-10922000Y35635052D01*
X-10892717Y35782266D01*
X-10835276Y35920942D01*
X-10751882Y36045750D01*
X-10645750Y36151882D01*
X-10520942Y36235276D01*
X-10382267Y36292717D01*
X-10333195Y36302478D01*
X-10235052Y36322000D01*
X-10084948Y36322000D01*
X-9986805Y36302478D01*
X-9986805Y36302478D01*
G37*
G36*
X-9986805Y38842478D02*
X-9937733Y38832717D01*
X-9799058Y38775276D01*
X-9674250Y38691882D01*
X-9568118Y38585750D01*
X-9484724Y38460942D01*
X-9427283Y38322266D01*
X-9398000Y38175052D01*
X-9398000Y38024948D01*
X-9427283Y37877734D01*
X-9484724Y37739058D01*
X-9568118Y37614250D01*
X-9674250Y37508118D01*
X-9674253Y37508116D01*
X-9799058Y37424724D01*
X-9937733Y37367283D01*
X-9986805Y37357522D01*
X-10084948Y37338000D01*
X-10235052Y37338000D01*
X-10333195Y37357522D01*
X-10382267Y37367283D01*
X-10520942Y37424724D01*
X-10645747Y37508116D01*
X-10645750Y37508118D01*
X-10751882Y37614250D01*
X-10835276Y37739058D01*
X-10892717Y37877734D01*
X-10922000Y38024948D01*
X-10922000Y38175052D01*
X-10892717Y38322266D01*
X-10835276Y38460942D01*
X-10751882Y38585750D01*
X-10645750Y38691882D01*
X-10520942Y38775276D01*
X-10382267Y38832717D01*
X-10333195Y38842478D01*
X-10235052Y38862000D01*
X-10084948Y38862000D01*
X-9986805Y38842478D01*
X-9986805Y38842478D01*
G37*
G36*
X-9986805Y41382478D02*
X-9937733Y41372717D01*
X-9799058Y41315276D01*
X-9674250Y41231882D01*
X-9568118Y41125750D01*
X-9484724Y41000942D01*
X-9427283Y40862266D01*
X-9398000Y40715052D01*
X-9398000Y40564948D01*
X-9427283Y40417734D01*
X-9484724Y40279058D01*
X-9568118Y40154250D01*
X-9674250Y40048118D01*
X-9674253Y40048116D01*
X-9799058Y39964724D01*
X-9937733Y39907283D01*
X-9986805Y39897522D01*
X-10084948Y39878000D01*
X-10235052Y39878000D01*
X-10333195Y39897522D01*
X-10382267Y39907283D01*
X-10520942Y39964724D01*
X-10645747Y40048116D01*
X-10645750Y40048118D01*
X-10751882Y40154250D01*
X-10835276Y40279058D01*
X-10892717Y40417734D01*
X-10922000Y40564948D01*
X-10922000Y40715052D01*
X-10892717Y40862266D01*
X-10835276Y41000942D01*
X-10751882Y41125750D01*
X-10645750Y41231882D01*
X-10520942Y41315276D01*
X-10382267Y41372717D01*
X-10333195Y41382478D01*
X-10235052Y41402000D01*
X-10084948Y41402000D01*
X-9986805Y41382478D01*
X-9986805Y41382478D01*
G37*
M02*
