M48
;DRILL file {KiCad (5.0.2)-1} date 2019-04-15 9:19:00 PM
;FORMAT={-:-/ absolute / inch / decimal}
FMAT,2
INCH,TZ
T1C0.0157
T2C0.0300
%
G90
G05
T1
X-0.275Y0.25
X-0.225Y0.35
X-0.2Y0.575
X-0.2Y0.425
T2
X-0.4Y1.6
X-0.4Y1.5
X-0.4Y1.4
X-0.4Y1.3
X-0.4Y1.2
X-0.4Y1.1
X-0.4Y1.
X-0.4Y0.9
X-0.4Y0.8
X-0.4Y0.7
X-0.4Y0.6
X-0.4Y0.5
X-0.4Y0.4
X-0.4Y0.3
X-0.4Y0.2
X-0.4Y0.1
X0.4Y1.2
X0.4Y1.1
X0.4Y1.
X0.4Y0.9
X0.4Y0.8
X0.4Y0.7
X0.4Y0.6
X0.4Y0.5
X0.4Y0.4
X0.4Y0.3
X0.4Y0.2
X0.4Y0.1
T0
M30
