G04 #@! TF.GenerationSoftware,KiCad,Pcbnew,(5.0.2)-1*
G04 #@! TF.CreationDate,2019-06-26T21:02:56-07:00*
G04 #@! TF.ProjectId,D52M Feather Wing,4435324d-2046-4656-9174-686572205769,rev?*
G04 #@! TF.SameCoordinates,Original*
G04 #@! TF.FileFunction,Legend,Bot*
G04 #@! TF.FilePolarity,Positive*
%FSLAX46Y46*%
G04 Gerber Fmt 4.6, Leading zero omitted, Abs format (unit mm)*
G04 Created by KiCad (PCBNEW (5.0.2)-1) date 2019-06-26 9:02:56 PM*
%MOMM*%
%LPD*%
G01*
G04 APERTURE LIST*
%ADD10C,0.300000*%
%ADD11C,0.150000*%
G04 APERTURE END LIST*
D10*
X5849285Y3043928D02*
X5349285Y1543928D01*
X4849285Y3043928D01*
X3777857Y1615357D02*
X3920714Y1543928D01*
X4206428Y1543928D01*
X4349285Y1615357D01*
X4420714Y1758214D01*
X4420714Y2329642D01*
X4349285Y2472500D01*
X4206428Y2543928D01*
X3920714Y2543928D01*
X3777857Y2472500D01*
X3706428Y2329642D01*
X3706428Y2186785D01*
X4420714Y2043928D01*
X3063571Y1543928D02*
X3063571Y2543928D01*
X3063571Y2258214D02*
X2992142Y2401071D01*
X2920714Y2472500D01*
X2777857Y2543928D01*
X2635000Y2543928D01*
X2206428Y1615357D02*
X2063571Y1543928D01*
X1777857Y1543928D01*
X1635000Y1615357D01*
X1563571Y1758214D01*
X1563571Y1829642D01*
X1635000Y1972500D01*
X1777857Y2043928D01*
X1992142Y2043928D01*
X2135000Y2115357D01*
X2206428Y2258214D01*
X2206428Y2329642D01*
X2135000Y2472500D01*
X1992142Y2543928D01*
X1777857Y2543928D01*
X1635000Y2472500D01*
X920714Y1543928D02*
X920714Y2543928D01*
X920714Y3043928D02*
X992142Y2972500D01*
X920714Y2901071D01*
X849285Y2972500D01*
X920714Y3043928D01*
X920714Y2901071D01*
X-7857Y1543928D02*
X135000Y1615357D01*
X206428Y1686785D01*
X277857Y1829642D01*
X277857Y2258214D01*
X206428Y2401071D01*
X135000Y2472500D01*
X-7857Y2543928D01*
X-222142Y2543928D01*
X-365000Y2472500D01*
X-436428Y2401071D01*
X-507857Y2258214D01*
X-507857Y1829642D01*
X-436428Y1686785D01*
X-365000Y1615357D01*
X-222142Y1543928D01*
X-7857Y1543928D01*
X-1150714Y2543928D02*
X-1150714Y1543928D01*
X-1150714Y2401071D02*
X-1222142Y2472500D01*
X-1365000Y2543928D01*
X-1579285Y2543928D01*
X-1722142Y2472500D01*
X-1793571Y2329642D01*
X-1793571Y1543928D01*
X-4436428Y1543928D02*
X-3579285Y1543928D01*
X-4007857Y1543928D02*
X-4007857Y3043928D01*
X-3865000Y2829642D01*
X-3722142Y2686785D01*
X-3579285Y2615357D01*
D11*
X5904761Y-897380D02*
X6238095Y-421190D01*
X6476190Y-897380D02*
X6476190Y102619D01*
X6095238Y102619D01*
X6000000Y55000D01*
X5952380Y7380D01*
X5904761Y-87857D01*
X5904761Y-230714D01*
X5952380Y-325952D01*
X6000000Y-373571D01*
X6095238Y-421190D01*
X6476190Y-421190D01*
X5095238Y-849761D02*
X5190476Y-897380D01*
X5380952Y-897380D01*
X5476190Y-849761D01*
X5523809Y-754523D01*
X5523809Y-373571D01*
X5476190Y-278333D01*
X5380952Y-230714D01*
X5190476Y-230714D01*
X5095238Y-278333D01*
X5047619Y-373571D01*
X5047619Y-468809D01*
X5523809Y-564047D01*
X4238095Y-849761D02*
X4333333Y-897380D01*
X4523809Y-897380D01*
X4619047Y-849761D01*
X4666666Y-754523D01*
X4666666Y-373571D01*
X4619047Y-278333D01*
X4523809Y-230714D01*
X4333333Y-230714D01*
X4238095Y-278333D01*
X4190476Y-373571D01*
X4190476Y-468809D01*
X4666666Y-564047D01*
X3333333Y-230714D02*
X3333333Y-1040238D01*
X3380952Y-1135476D01*
X3428571Y-1183095D01*
X3523809Y-1230714D01*
X3666666Y-1230714D01*
X3761904Y-1183095D01*
X3333333Y-849761D02*
X3428571Y-897380D01*
X3619047Y-897380D01*
X3714285Y-849761D01*
X3761904Y-802142D01*
X3809523Y-706904D01*
X3809523Y-421190D01*
X3761904Y-325952D01*
X3714285Y-278333D01*
X3619047Y-230714D01*
X3428571Y-230714D01*
X3333333Y-278333D01*
X2428571Y-897380D02*
X2428571Y-373571D01*
X2476190Y-278333D01*
X2571428Y-230714D01*
X2761904Y-230714D01*
X2857142Y-278333D01*
X2428571Y-849761D02*
X2523809Y-897380D01*
X2761904Y-897380D01*
X2857142Y-849761D01*
X2904761Y-754523D01*
X2904761Y-659285D01*
X2857142Y-564047D01*
X2761904Y-516428D01*
X2523809Y-516428D01*
X2428571Y-468809D01*
X1952380Y-230714D02*
X1952380Y-897380D01*
X1952380Y-325952D02*
X1904761Y-278333D01*
X1809523Y-230714D01*
X1666666Y-230714D01*
X1571428Y-278333D01*
X1523809Y-373571D01*
X1523809Y-897380D01*
X285714Y-897380D02*
X285714Y102619D01*
X-47619Y-611666D01*
X-380952Y102619D01*
X-380952Y-897380D01*
X-1285714Y-849761D02*
X-1190476Y-897380D01*
X-999999Y-897380D01*
X-904761Y-849761D01*
X-857142Y-802142D01*
X-809523Y-706904D01*
X-809523Y-421190D01*
X-857142Y-325952D01*
X-904761Y-278333D01*
X-999999Y-230714D01*
X-1190476Y-230714D01*
X-1285714Y-278333D01*
X-1666666Y-611666D02*
X-2142857Y-611666D01*
X-1571428Y-897380D02*
X-1904761Y102619D01*
X-2238095Y-897380D01*
X-2714285Y-897380D02*
X-2619047Y-849761D01*
X-2571428Y-754523D01*
X-2571428Y102619D01*
X-3238095Y-897380D02*
X-3142857Y-849761D01*
X-3095238Y-754523D01*
X-3095238Y102619D01*
X-3619047Y-897380D02*
X-3619047Y-230714D01*
X-3619047Y102619D02*
X-3571428Y55000D01*
X-3619047Y7380D01*
X-3666666Y55000D01*
X-3619047Y102619D01*
X-3619047Y7380D01*
X-4047619Y-849761D02*
X-4142857Y-897380D01*
X-4333333Y-897380D01*
X-4428571Y-849761D01*
X-4476190Y-754523D01*
X-4476190Y-706904D01*
X-4428571Y-611666D01*
X-4333333Y-564047D01*
X-4190476Y-564047D01*
X-4095238Y-516428D01*
X-4047619Y-421190D01*
X-4047619Y-373571D01*
X-4095238Y-278333D01*
X-4190476Y-230714D01*
X-4333333Y-230714D01*
X-4428571Y-278333D01*
X-4761904Y-230714D02*
X-5142857Y-230714D01*
X-4904761Y102619D02*
X-4904761Y-754523D01*
X-4952380Y-849761D01*
X-5047619Y-897380D01*
X-5142857Y-897380D01*
X-5857142Y-849761D02*
X-5761904Y-897380D01*
X-5571428Y-897380D01*
X-5476190Y-849761D01*
X-5428571Y-754523D01*
X-5428571Y-373571D01*
X-5476190Y-278333D01*
X-5571428Y-230714D01*
X-5761904Y-230714D01*
X-5857142Y-278333D01*
X-5904761Y-373571D01*
X-5904761Y-468809D01*
X-5428571Y-564047D01*
X-6333333Y-897380D02*
X-6333333Y-230714D01*
X-6333333Y-421190D02*
X-6380952Y-325952D01*
X-6428571Y-278333D01*
X-6523809Y-230714D01*
X-6619047Y-230714D01*
X5000000Y-2452142D02*
X5047619Y-2499761D01*
X5190476Y-2547380D01*
X5285714Y-2547380D01*
X5428571Y-2499761D01*
X5523809Y-2404523D01*
X5571428Y-2309285D01*
X5619047Y-2118809D01*
X5619047Y-1975952D01*
X5571428Y-1785476D01*
X5523809Y-1690238D01*
X5428571Y-1595000D01*
X5285714Y-1547380D01*
X5190476Y-1547380D01*
X5047619Y-1595000D01*
X5000000Y-1642619D01*
X4142857Y-1880714D02*
X4142857Y-2547380D01*
X4571428Y-1880714D02*
X4571428Y-2404523D01*
X4523809Y-2499761D01*
X4428571Y-2547380D01*
X4285714Y-2547380D01*
X4190476Y-2499761D01*
X4142857Y-2452142D01*
X3666666Y-2547380D02*
X3666666Y-1880714D01*
X3666666Y-2071190D02*
X3619047Y-1975952D01*
X3571428Y-1928333D01*
X3476190Y-1880714D01*
X3380952Y-1880714D01*
X3190476Y-1880714D02*
X2809523Y-1880714D01*
X3047619Y-1547380D02*
X3047619Y-2404523D01*
X3000000Y-2499761D01*
X2904761Y-2547380D01*
X2809523Y-2547380D01*
X2476190Y-2547380D02*
X2476190Y-1880714D01*
X2476190Y-1547380D02*
X2523809Y-1595000D01*
X2476190Y-1642619D01*
X2428571Y-1595000D01*
X2476190Y-1547380D01*
X2476190Y-1642619D01*
X2047619Y-2499761D02*
X1952380Y-2547380D01*
X1761904Y-2547380D01*
X1666666Y-2499761D01*
X1619047Y-2404523D01*
X1619047Y-2356904D01*
X1666666Y-2261666D01*
X1761904Y-2214047D01*
X1904761Y-2214047D01*
X2000000Y-2166428D01*
X2047619Y-2071190D01*
X2047619Y-2023571D01*
X2000000Y-1928333D01*
X1904761Y-1880714D01*
X1761904Y-1880714D01*
X1666666Y-1928333D01*
X428571Y-2547380D02*
X428571Y-1547380D01*
X95238Y-2261666D01*
X-238095Y-1547380D01*
X-238095Y-2547380D01*
X-1142857Y-2547380D02*
X-1142857Y-2023571D01*
X-1095238Y-1928333D01*
X-999999Y-1880714D01*
X-809523Y-1880714D01*
X-714285Y-1928333D01*
X-1142857Y-2499761D02*
X-1047619Y-2547380D01*
X-809523Y-2547380D01*
X-714285Y-2499761D01*
X-666666Y-2404523D01*
X-666666Y-2309285D01*
X-714285Y-2214047D01*
X-809523Y-2166428D01*
X-1047619Y-2166428D01*
X-1142857Y-2118809D01*
X-1761904Y-2547380D02*
X-1666666Y-2499761D01*
X-1619047Y-2404523D01*
X-1619047Y-1547380D01*
X-2571428Y-2547380D02*
X-2571428Y-2023571D01*
X-2523809Y-1928333D01*
X-2428571Y-1880714D01*
X-2238095Y-1880714D01*
X-2142857Y-1928333D01*
X-2571428Y-2499761D02*
X-2476190Y-2547380D01*
X-2238095Y-2547380D01*
X-2142857Y-2499761D01*
X-2095238Y-2404523D01*
X-2095238Y-2309285D01*
X-2142857Y-2214047D01*
X-2238095Y-2166428D01*
X-2476190Y-2166428D01*
X-2571428Y-2118809D01*
X-3047619Y-2547380D02*
X-3047619Y-1880714D01*
X-3047619Y-1547380D02*
X-2999999Y-1595000D01*
X-3047619Y-1642619D01*
X-3095238Y-1595000D01*
X-3047619Y-1547380D01*
X-3047619Y-1642619D01*
X-3523809Y-1880714D02*
X-3523809Y-2547380D01*
X-3523809Y-1975952D02*
X-3571428Y-1928333D01*
X-3666666Y-1880714D01*
X-3809523Y-1880714D01*
X-3904761Y-1928333D01*
X-3952380Y-2023571D01*
X-3952380Y-2547380D01*
X-4809523Y-2499761D02*
X-4714285Y-2547380D01*
X-4523809Y-2547380D01*
X-4428571Y-2499761D01*
X-4380952Y-2404523D01*
X-4380952Y-2023571D01*
X-4428571Y-1928333D01*
X-4523809Y-1880714D01*
X-4714285Y-1880714D01*
X-4809523Y-1928333D01*
X-4857142Y-2023571D01*
X-4857142Y-2118809D01*
X-4380952Y-2214047D01*
X-5190476Y-1880714D02*
X-5428571Y-2547380D01*
X-5666666Y-1880714D02*
X-5428571Y-2547380D01*
X-5333333Y-2785476D01*
X-5285714Y-2833095D01*
X-5190476Y-2880714D01*
M02*
