G04 #@! TF.GenerationSoftware,KiCad,Pcbnew,(5.0.2)-1*
G04 #@! TF.CreationDate,2019-04-15T21:18:57-07:00*
G04 #@! TF.ProjectId,D52M Feather Wing,4435324d-2046-4656-9174-686572205769,rev?*
G04 #@! TF.SameCoordinates,Original*
G04 #@! TF.FileFunction,Paste,Top*
G04 #@! TF.FilePolarity,Positive*
%FSLAX46Y46*%
G04 Gerber Fmt 4.6, Leading zero omitted, Abs format (unit mm)*
G04 Created by KiCad (PCBNEW (5.0.2)-1) date 2019-04-15 9:18:57 PM*
%MOMM*%
%LPD*%
G01*
G04 APERTURE LIST*
%ADD10C,0.100000*%
G04 APERTURE END LIST*
D10*
G04 #@! TO.C,U2*
G36*
X-3320000Y16340000D02*
X-3320000Y15975000D01*
X-3685000Y15975000D01*
X-3685000Y16340000D01*
X-3320000Y16340000D01*
G37*
G36*
X-3320000Y14840000D02*
X-3320000Y14475000D01*
X-3685000Y14475000D01*
X-3685000Y14840000D01*
X-3320000Y14840000D01*
G37*
G36*
X-3320000Y13340000D02*
X-3320000Y12975000D01*
X-3685000Y12975000D01*
X-3685000Y13340000D01*
X-3320000Y13340000D01*
G37*
G36*
X-3320000Y11840000D02*
X-3320000Y11475000D01*
X-3685000Y11475000D01*
X-3685000Y11840000D01*
X-3320000Y11840000D01*
G37*
G36*
X-3320000Y10340000D02*
X-3320000Y9975000D01*
X-3685000Y9975000D01*
X-3685000Y10340000D01*
X-3320000Y10340000D01*
G37*
G36*
X-3320000Y8840000D02*
X-3320000Y8475000D01*
X-3685000Y8475000D01*
X-3685000Y8840000D01*
X-3320000Y8840000D01*
G37*
G36*
X-1820000Y16340000D02*
X-1820000Y15975000D01*
X-2185000Y15975000D01*
X-2185000Y16340000D01*
X-1820000Y16340000D01*
G37*
G36*
X-1820000Y14840000D02*
X-1820000Y14475000D01*
X-2185000Y14475000D01*
X-2185000Y14840000D01*
X-1820000Y14840000D01*
G37*
G36*
X-1820000Y13340000D02*
X-1820000Y12975000D01*
X-2185000Y12975000D01*
X-2185000Y13340000D01*
X-1820000Y13340000D01*
G37*
G36*
X-1820000Y11840000D02*
X-1820000Y11475000D01*
X-2185000Y11475000D01*
X-2185000Y11840000D01*
X-1820000Y11840000D01*
G37*
G36*
X-1820000Y10340000D02*
X-1820000Y9975000D01*
X-2185000Y9975000D01*
X-2185000Y10340000D01*
X-1820000Y10340000D01*
G37*
G36*
X-1820000Y8840000D02*
X-1820000Y8475000D01*
X-2185000Y8475000D01*
X-2185000Y8840000D01*
X-1820000Y8840000D01*
G37*
G36*
X-320000Y16340000D02*
X-320000Y15975000D01*
X-685000Y15975000D01*
X-685000Y16340000D01*
X-320000Y16340000D01*
G37*
G36*
X-320000Y14840000D02*
X-320000Y14475000D01*
X-685000Y14475000D01*
X-685000Y14840000D01*
X-320000Y14840000D01*
G37*
G36*
X-320000Y13340000D02*
X-320000Y12975000D01*
X-685000Y12975000D01*
X-685000Y13340000D01*
X-320000Y13340000D01*
G37*
G36*
X-320000Y11840000D02*
X-320000Y11475000D01*
X-685000Y11475000D01*
X-685000Y11840000D01*
X-320000Y11840000D01*
G37*
G36*
X-320000Y10340000D02*
X-320000Y9975000D01*
X-685000Y9975000D01*
X-685000Y10340000D01*
X-320000Y10340000D01*
G37*
G36*
X-320000Y8840000D02*
X-320000Y8475000D01*
X-685000Y8475000D01*
X-685000Y8840000D01*
X-320000Y8840000D01*
G37*
G36*
X1180000Y16340000D02*
X1180000Y15975000D01*
X815000Y15975000D01*
X815000Y16340000D01*
X1180000Y16340000D01*
G37*
G36*
X1180000Y14840000D02*
X1180000Y14475000D01*
X815000Y14475000D01*
X815000Y14840000D01*
X1180000Y14840000D01*
G37*
G36*
X1180000Y13340000D02*
X1180000Y12975000D01*
X815000Y12975000D01*
X815000Y13340000D01*
X1180000Y13340000D01*
G37*
G36*
X1180000Y11840000D02*
X1180000Y11475000D01*
X815000Y11475000D01*
X815000Y11840000D01*
X1180000Y11840000D01*
G37*
G36*
X1180000Y10340000D02*
X1180000Y9975000D01*
X815000Y9975000D01*
X815000Y10340000D01*
X1180000Y10340000D01*
G37*
G36*
X1180000Y8840000D02*
X1180000Y8475000D01*
X815000Y8475000D01*
X815000Y8840000D01*
X1180000Y8840000D01*
G37*
G36*
X2680000Y16340000D02*
X2680000Y15975000D01*
X2315000Y15975000D01*
X2315000Y16340000D01*
X2680000Y16340000D01*
G37*
G36*
X2680000Y14840000D02*
X2680000Y14475000D01*
X2315000Y14475000D01*
X2315000Y14840000D01*
X2680000Y14840000D01*
G37*
G36*
X2680000Y13340000D02*
X2680000Y12975000D01*
X2315000Y12975000D01*
X2315000Y13340000D01*
X2680000Y13340000D01*
G37*
G36*
X2680000Y11840000D02*
X2680000Y11475000D01*
X2315000Y11475000D01*
X2315000Y11840000D01*
X2680000Y11840000D01*
G37*
G36*
X2680000Y10340000D02*
X2680000Y9975000D01*
X2315000Y9975000D01*
X2315000Y10340000D01*
X2680000Y10340000D01*
G37*
G36*
X2680000Y8840000D02*
X2680000Y8475000D01*
X2315000Y8475000D01*
X2315000Y8840000D01*
X2680000Y8840000D01*
G37*
G36*
X4180000Y16340000D02*
X4180000Y15975000D01*
X3815000Y15975000D01*
X3815000Y16340000D01*
X4180000Y16340000D01*
G37*
G36*
X4180000Y14840000D02*
X4180000Y14475000D01*
X3815000Y14475000D01*
X3815000Y14840000D01*
X4180000Y14840000D01*
G37*
G36*
X4180000Y13340000D02*
X4180000Y12975000D01*
X3815000Y12975000D01*
X3815000Y13340000D01*
X4180000Y13340000D01*
G37*
G36*
X4180000Y11840000D02*
X4180000Y11475000D01*
X3815000Y11475000D01*
X3815000Y11840000D01*
X4180000Y11840000D01*
G37*
G36*
X4180000Y10340000D02*
X4180000Y9975000D01*
X3815000Y9975000D01*
X3815000Y10340000D01*
X4180000Y10340000D01*
G37*
G36*
X-3815000Y16340000D02*
X-3815000Y15975000D01*
X-4180000Y15975000D01*
X-4180000Y16340000D01*
X-3815000Y16340000D01*
G37*
G36*
X-3815000Y14840000D02*
X-3815000Y14475000D01*
X-4180000Y14475000D01*
X-4180000Y14840000D01*
X-3815000Y14840000D01*
G37*
G36*
X-3815000Y13340000D02*
X-3815000Y12975000D01*
X-4180000Y12975000D01*
X-4180000Y13340000D01*
X-3815000Y13340000D01*
G37*
G36*
X-3815000Y11840000D02*
X-3815000Y11475000D01*
X-4180000Y11475000D01*
X-4180000Y11840000D01*
X-3815000Y11840000D01*
G37*
G36*
X-3815000Y10340000D02*
X-3815000Y9975000D01*
X-4180000Y9975000D01*
X-4180000Y10340000D01*
X-3815000Y10340000D01*
G37*
G36*
X-3815000Y8840000D02*
X-3815000Y8475000D01*
X-4180000Y8475000D01*
X-4180000Y8840000D01*
X-3815000Y8840000D01*
G37*
G36*
X-2315000Y16340000D02*
X-2315000Y15975000D01*
X-2680000Y15975000D01*
X-2680000Y16340000D01*
X-2315000Y16340000D01*
G37*
G36*
X-2315000Y14840000D02*
X-2315000Y14475000D01*
X-2680000Y14475000D01*
X-2680000Y14840000D01*
X-2315000Y14840000D01*
G37*
G36*
X-2315000Y13340000D02*
X-2315000Y12975000D01*
X-2680000Y12975000D01*
X-2680000Y13340000D01*
X-2315000Y13340000D01*
G37*
G36*
X-2315000Y11840000D02*
X-2315000Y11475000D01*
X-2680000Y11475000D01*
X-2680000Y11840000D01*
X-2315000Y11840000D01*
G37*
G36*
X-2315000Y10340000D02*
X-2315000Y9975000D01*
X-2680000Y9975000D01*
X-2680000Y10340000D01*
X-2315000Y10340000D01*
G37*
G36*
X-2315000Y8840000D02*
X-2315000Y8475000D01*
X-2680000Y8475000D01*
X-2680000Y8840000D01*
X-2315000Y8840000D01*
G37*
G36*
X-815000Y16340000D02*
X-815000Y15975000D01*
X-1180000Y15975000D01*
X-1180000Y16340000D01*
X-815000Y16340000D01*
G37*
G36*
X-815000Y14840000D02*
X-815000Y14475000D01*
X-1180000Y14475000D01*
X-1180000Y14840000D01*
X-815000Y14840000D01*
G37*
G36*
X-815000Y13340000D02*
X-815000Y12975000D01*
X-1180000Y12975000D01*
X-1180000Y13340000D01*
X-815000Y13340000D01*
G37*
G36*
X-815000Y11840000D02*
X-815000Y11475000D01*
X-1180000Y11475000D01*
X-1180000Y11840000D01*
X-815000Y11840000D01*
G37*
G36*
X-815000Y10340000D02*
X-815000Y9975000D01*
X-1180000Y9975000D01*
X-1180000Y10340000D01*
X-815000Y10340000D01*
G37*
G36*
X-815000Y8840000D02*
X-815000Y8475000D01*
X-1180000Y8475000D01*
X-1180000Y8840000D01*
X-815000Y8840000D01*
G37*
G36*
X685000Y16340000D02*
X685000Y15975000D01*
X320000Y15975000D01*
X320000Y16340000D01*
X685000Y16340000D01*
G37*
G36*
X685000Y14840000D02*
X685000Y14475000D01*
X320000Y14475000D01*
X320000Y14840000D01*
X685000Y14840000D01*
G37*
G36*
X685000Y13340000D02*
X685000Y12975000D01*
X320000Y12975000D01*
X320000Y13340000D01*
X685000Y13340000D01*
G37*
G36*
X685000Y11840000D02*
X685000Y11475000D01*
X320000Y11475000D01*
X320000Y11840000D01*
X685000Y11840000D01*
G37*
G36*
X685000Y10340000D02*
X685000Y9975000D01*
X320000Y9975000D01*
X320000Y10340000D01*
X685000Y10340000D01*
G37*
G36*
X685000Y8840000D02*
X685000Y8475000D01*
X320000Y8475000D01*
X320000Y8840000D01*
X685000Y8840000D01*
G37*
G36*
X2185000Y16340000D02*
X2185000Y15975000D01*
X1820000Y15975000D01*
X1820000Y16340000D01*
X2185000Y16340000D01*
G37*
G36*
X2185000Y14840000D02*
X2185000Y14475000D01*
X1820000Y14475000D01*
X1820000Y14840000D01*
X2185000Y14840000D01*
G37*
G36*
X2185000Y13340000D02*
X2185000Y12975000D01*
X1820000Y12975000D01*
X1820000Y13340000D01*
X2185000Y13340000D01*
G37*
G36*
X2185000Y11840000D02*
X2185000Y11475000D01*
X1820000Y11475000D01*
X1820000Y11840000D01*
X2185000Y11840000D01*
G37*
G36*
X2185000Y10340000D02*
X2185000Y9975000D01*
X1820000Y9975000D01*
X1820000Y10340000D01*
X2185000Y10340000D01*
G37*
G36*
X2185000Y8840000D02*
X2185000Y8475000D01*
X1820000Y8475000D01*
X1820000Y8840000D01*
X2185000Y8840000D01*
G37*
G36*
X3685000Y16340000D02*
X3685000Y15975000D01*
X3320000Y15975000D01*
X3320000Y16340000D01*
X3685000Y16340000D01*
G37*
G36*
X3685000Y14840000D02*
X3685000Y14475000D01*
X3320000Y14475000D01*
X3320000Y14840000D01*
X3685000Y14840000D01*
G37*
G36*
X3685000Y13340000D02*
X3685000Y12975000D01*
X3320000Y12975000D01*
X3320000Y13340000D01*
X3685000Y13340000D01*
G37*
G36*
X3685000Y11840000D02*
X3685000Y11475000D01*
X3320000Y11475000D01*
X3320000Y11840000D01*
X3685000Y11840000D01*
G37*
G36*
X3685000Y10340000D02*
X3685000Y9975000D01*
X3320000Y9975000D01*
X3320000Y10340000D01*
X3685000Y10340000D01*
G37*
G36*
X-3815000Y15845000D02*
X-3815000Y15480000D01*
X-4180000Y15480000D01*
X-4180000Y15845000D01*
X-3815000Y15845000D01*
G37*
G36*
X-3815000Y14345000D02*
X-3815000Y13980000D01*
X-4180000Y13980000D01*
X-4180000Y14345000D01*
X-3815000Y14345000D01*
G37*
G36*
X-3815000Y12845000D02*
X-3815000Y12480000D01*
X-4180000Y12480000D01*
X-4180000Y12845000D01*
X-3815000Y12845000D01*
G37*
G36*
X-3815000Y11345000D02*
X-3815000Y10980000D01*
X-4180000Y10980000D01*
X-4180000Y11345000D01*
X-3815000Y11345000D01*
G37*
G36*
X-3815000Y9845000D02*
X-3815000Y9480000D01*
X-4180000Y9480000D01*
X-4180000Y9845000D01*
X-3815000Y9845000D01*
G37*
G36*
X-3815000Y8345000D02*
X-3815000Y7980000D01*
X-4180000Y7980000D01*
X-4180000Y8345000D01*
X-3815000Y8345000D01*
G37*
G36*
X-2315000Y15845000D02*
X-2315000Y15480000D01*
X-2680000Y15480000D01*
X-2680000Y15845000D01*
X-2315000Y15845000D01*
G37*
G36*
X-2315000Y14345000D02*
X-2315000Y13980000D01*
X-2680000Y13980000D01*
X-2680000Y14345000D01*
X-2315000Y14345000D01*
G37*
G36*
X-2315000Y12845000D02*
X-2315000Y12480000D01*
X-2680000Y12480000D01*
X-2680000Y12845000D01*
X-2315000Y12845000D01*
G37*
G36*
X-2315000Y11345000D02*
X-2315000Y10980000D01*
X-2680000Y10980000D01*
X-2680000Y11345000D01*
X-2315000Y11345000D01*
G37*
G36*
X-2315000Y9845000D02*
X-2315000Y9480000D01*
X-2680000Y9480000D01*
X-2680000Y9845000D01*
X-2315000Y9845000D01*
G37*
G36*
X-2315000Y8345000D02*
X-2315000Y7980000D01*
X-2680000Y7980000D01*
X-2680000Y8345000D01*
X-2315000Y8345000D01*
G37*
G36*
X-815000Y15845000D02*
X-815000Y15480000D01*
X-1180000Y15480000D01*
X-1180000Y15845000D01*
X-815000Y15845000D01*
G37*
G36*
X-815000Y14345000D02*
X-815000Y13980000D01*
X-1180000Y13980000D01*
X-1180000Y14345000D01*
X-815000Y14345000D01*
G37*
G36*
X-815000Y12845000D02*
X-815000Y12480000D01*
X-1180000Y12480000D01*
X-1180000Y12845000D01*
X-815000Y12845000D01*
G37*
G36*
X-815000Y11345000D02*
X-815000Y10980000D01*
X-1180000Y10980000D01*
X-1180000Y11345000D01*
X-815000Y11345000D01*
G37*
G36*
X-815000Y9845000D02*
X-815000Y9480000D01*
X-1180000Y9480000D01*
X-1180000Y9845000D01*
X-815000Y9845000D01*
G37*
G36*
X-815000Y8345000D02*
X-815000Y7980000D01*
X-1180000Y7980000D01*
X-1180000Y8345000D01*
X-815000Y8345000D01*
G37*
G36*
X685000Y15845000D02*
X685000Y15480000D01*
X320000Y15480000D01*
X320000Y15845000D01*
X685000Y15845000D01*
G37*
G36*
X685000Y14345000D02*
X685000Y13980000D01*
X320000Y13980000D01*
X320000Y14345000D01*
X685000Y14345000D01*
G37*
G36*
X685000Y12845000D02*
X685000Y12480000D01*
X320000Y12480000D01*
X320000Y12845000D01*
X685000Y12845000D01*
G37*
G36*
X685000Y11345000D02*
X685000Y10980000D01*
X320000Y10980000D01*
X320000Y11345000D01*
X685000Y11345000D01*
G37*
G36*
X685000Y9845000D02*
X685000Y9480000D01*
X320000Y9480000D01*
X320000Y9845000D01*
X685000Y9845000D01*
G37*
G36*
X685000Y8345000D02*
X685000Y7980000D01*
X320000Y7980000D01*
X320000Y8345000D01*
X685000Y8345000D01*
G37*
G36*
X2185000Y15845000D02*
X2185000Y15480000D01*
X1820000Y15480000D01*
X1820000Y15845000D01*
X2185000Y15845000D01*
G37*
G36*
X2185000Y14345000D02*
X2185000Y13980000D01*
X1820000Y13980000D01*
X1820000Y14345000D01*
X2185000Y14345000D01*
G37*
G36*
X2185000Y12845000D02*
X2185000Y12480000D01*
X1820000Y12480000D01*
X1820000Y12845000D01*
X2185000Y12845000D01*
G37*
G36*
X2185000Y11345000D02*
X2185000Y10980000D01*
X1820000Y10980000D01*
X1820000Y11345000D01*
X2185000Y11345000D01*
G37*
G36*
X2185000Y9845000D02*
X2185000Y9480000D01*
X1820000Y9480000D01*
X1820000Y9845000D01*
X2185000Y9845000D01*
G37*
G36*
X2185000Y8345000D02*
X2185000Y7980000D01*
X1820000Y7980000D01*
X1820000Y8345000D01*
X2185000Y8345000D01*
G37*
G36*
X3685000Y15845000D02*
X3685000Y15480000D01*
X3320000Y15480000D01*
X3320000Y15845000D01*
X3685000Y15845000D01*
G37*
G36*
X3685000Y14345000D02*
X3685000Y13980000D01*
X3320000Y13980000D01*
X3320000Y14345000D01*
X3685000Y14345000D01*
G37*
G36*
X3685000Y12845000D02*
X3685000Y12480000D01*
X3320000Y12480000D01*
X3320000Y12845000D01*
X3685000Y12845000D01*
G37*
G36*
X3685000Y11345000D02*
X3685000Y10980000D01*
X3320000Y10980000D01*
X3320000Y11345000D01*
X3685000Y11345000D01*
G37*
G36*
X3685000Y9845000D02*
X3685000Y9480000D01*
X3320000Y9480000D01*
X3320000Y9845000D01*
X3685000Y9845000D01*
G37*
G36*
X-3320000Y15845000D02*
X-3320000Y15480000D01*
X-3685000Y15480000D01*
X-3685000Y15845000D01*
X-3320000Y15845000D01*
G37*
G36*
X-3320000Y14345000D02*
X-3320000Y13980000D01*
X-3685000Y13980000D01*
X-3685000Y14345000D01*
X-3320000Y14345000D01*
G37*
G36*
X-3320000Y12845000D02*
X-3320000Y12480000D01*
X-3685000Y12480000D01*
X-3685000Y12845000D01*
X-3320000Y12845000D01*
G37*
G36*
X-3320000Y11345000D02*
X-3320000Y10980000D01*
X-3685000Y10980000D01*
X-3685000Y11345000D01*
X-3320000Y11345000D01*
G37*
G36*
X-3320000Y9845000D02*
X-3320000Y9480000D01*
X-3685000Y9480000D01*
X-3685000Y9845000D01*
X-3320000Y9845000D01*
G37*
G36*
X-3320000Y8345000D02*
X-3320000Y7980000D01*
X-3685000Y7980000D01*
X-3685000Y8345000D01*
X-3320000Y8345000D01*
G37*
G36*
X-1820000Y15845000D02*
X-1820000Y15480000D01*
X-2185000Y15480000D01*
X-2185000Y15845000D01*
X-1820000Y15845000D01*
G37*
G36*
X-1820000Y14345000D02*
X-1820000Y13980000D01*
X-2185000Y13980000D01*
X-2185000Y14345000D01*
X-1820000Y14345000D01*
G37*
G36*
X-1820000Y12845000D02*
X-1820000Y12480000D01*
X-2185000Y12480000D01*
X-2185000Y12845000D01*
X-1820000Y12845000D01*
G37*
G36*
X-1820000Y11345000D02*
X-1820000Y10980000D01*
X-2185000Y10980000D01*
X-2185000Y11345000D01*
X-1820000Y11345000D01*
G37*
G36*
X-1820000Y9845000D02*
X-1820000Y9480000D01*
X-2185000Y9480000D01*
X-2185000Y9845000D01*
X-1820000Y9845000D01*
G37*
G36*
X-1820000Y8345000D02*
X-1820000Y7980000D01*
X-2185000Y7980000D01*
X-2185000Y8345000D01*
X-1820000Y8345000D01*
G37*
G36*
X-320000Y15845000D02*
X-320000Y15480000D01*
X-685000Y15480000D01*
X-685000Y15845000D01*
X-320000Y15845000D01*
G37*
G36*
X-320000Y14345000D02*
X-320000Y13980000D01*
X-685000Y13980000D01*
X-685000Y14345000D01*
X-320000Y14345000D01*
G37*
G36*
X-320000Y12845000D02*
X-320000Y12480000D01*
X-685000Y12480000D01*
X-685000Y12845000D01*
X-320000Y12845000D01*
G37*
G36*
X-320000Y11345000D02*
X-320000Y10980000D01*
X-685000Y10980000D01*
X-685000Y11345000D01*
X-320000Y11345000D01*
G37*
G36*
X-320000Y9845000D02*
X-320000Y9480000D01*
X-685000Y9480000D01*
X-685000Y9845000D01*
X-320000Y9845000D01*
G37*
G36*
X-320000Y8345000D02*
X-320000Y7980000D01*
X-685000Y7980000D01*
X-685000Y8345000D01*
X-320000Y8345000D01*
G37*
G36*
X1180000Y15845000D02*
X1180000Y15480000D01*
X815000Y15480000D01*
X815000Y15845000D01*
X1180000Y15845000D01*
G37*
G36*
X1180000Y14345000D02*
X1180000Y13980000D01*
X815000Y13980000D01*
X815000Y14345000D01*
X1180000Y14345000D01*
G37*
G36*
X1180000Y12845000D02*
X1180000Y12480000D01*
X815000Y12480000D01*
X815000Y12845000D01*
X1180000Y12845000D01*
G37*
G36*
X1180000Y11345000D02*
X1180000Y10980000D01*
X815000Y10980000D01*
X815000Y11345000D01*
X1180000Y11345000D01*
G37*
G36*
X1180000Y9845000D02*
X1180000Y9480000D01*
X815000Y9480000D01*
X815000Y9845000D01*
X1180000Y9845000D01*
G37*
G36*
X1180000Y8345000D02*
X1180000Y7980000D01*
X815000Y7980000D01*
X815000Y8345000D01*
X1180000Y8345000D01*
G37*
G36*
X2680000Y15845000D02*
X2680000Y15480000D01*
X2315000Y15480000D01*
X2315000Y15845000D01*
X2680000Y15845000D01*
G37*
G36*
X2680000Y14345000D02*
X2680000Y13980000D01*
X2315000Y13980000D01*
X2315000Y14345000D01*
X2680000Y14345000D01*
G37*
G36*
X2680000Y12845000D02*
X2680000Y12480000D01*
X2315000Y12480000D01*
X2315000Y12845000D01*
X2680000Y12845000D01*
G37*
G36*
X2680000Y11345000D02*
X2680000Y10980000D01*
X2315000Y10980000D01*
X2315000Y11345000D01*
X2680000Y11345000D01*
G37*
G36*
X2680000Y9845000D02*
X2680000Y9480000D01*
X2315000Y9480000D01*
X2315000Y9845000D01*
X2680000Y9845000D01*
G37*
G36*
X2680000Y8345000D02*
X2680000Y7980000D01*
X2315000Y7980000D01*
X2315000Y8345000D01*
X2680000Y8345000D01*
G37*
G36*
X4180000Y15845000D02*
X4180000Y15480000D01*
X3815000Y15480000D01*
X3815000Y15845000D01*
X4180000Y15845000D01*
G37*
G36*
X4180000Y14345000D02*
X4180000Y13980000D01*
X3815000Y13980000D01*
X3815000Y14345000D01*
X4180000Y14345000D01*
G37*
G36*
X4180000Y12845000D02*
X4180000Y12480000D01*
X3815000Y12480000D01*
X3815000Y12845000D01*
X4180000Y12845000D01*
G37*
G36*
X4180000Y11345000D02*
X4180000Y10980000D01*
X3815000Y10980000D01*
X3815000Y11345000D01*
X4180000Y11345000D01*
G37*
G36*
X4180000Y9845000D02*
X4180000Y9480000D01*
X3815000Y9480000D01*
X3815000Y9845000D01*
X4180000Y9845000D01*
G37*
G04 #@! TD*
M02*
